G04*
G04 #@! TF.GenerationSoftware,Altium Limited,CircuitStudio,1.5.2 (30)*
G04*
G04 Layer_Physical_Order=2*
G04 Layer_Color=12500520*
%FSLAX25Y25*%
%MOIN*%
G70*
G01*
G75*
%ADD10O,0.03937X0.07087*%
%ADD11C,0.07400*%
%ADD12C,0.01969*%
%ADD13R,0.03543X0.02362*%
%ADD14R,0.02756X0.01575*%
%ADD15C,0.01575*%
%ADD16C,0.00591*%
D10*
X423228Y423228D02*
D03*
X413386D02*
D03*
X403543D02*
D03*
D11*
X402559Y401575D02*
D03*
X412559D02*
D03*
X422559D02*
D03*
X432559D02*
D03*
D12*
X431102Y413386D02*
D03*
X415354Y407480D02*
D03*
X429134Y427165D02*
D03*
X435039D02*
D03*
X396654Y413386D02*
D03*
D13*
X424016Y417126D02*
D03*
Y409646D02*
D03*
X434252Y417126D02*
D03*
Y413386D02*
D03*
Y409646D02*
D03*
X410630D02*
D03*
X400394Y417126D02*
D03*
Y413386D02*
D03*
Y409646D02*
D03*
X410630Y417126D02*
D03*
Y413386D02*
D03*
D14*
X429134Y421457D02*
D03*
Y425000D02*
D03*
X435039Y421457D02*
D03*
Y425000D02*
D03*
X415354Y413189D02*
D03*
Y409646D02*
D03*
D15*
X435039Y417913D02*
Y421457D01*
X419291Y413189D02*
X421063D01*
X415354D02*
X419291D01*
X410827D02*
X415354D01*
X419291Y407480D02*
Y413189D01*
X413386Y401575D02*
X419291Y407480D01*
X424016Y416142D02*
Y417126D01*
X421063Y413189D02*
X424016Y416142D01*
X424803Y417126D02*
X429134Y421457D01*
X424016Y417126D02*
X424803D01*
X435039Y431102D02*
X438976Y427165D01*
X421260Y431102D02*
X435039D01*
X413386Y423228D02*
X421260Y431102D01*
X434252Y417126D02*
X438779D01*
X438976Y411417D02*
Y427165D01*
X437205Y409646D02*
X438976Y411417D01*
X434252Y409646D02*
X437205D01*
D16*
X412559Y401575D02*
X413386D01*
X431102Y413386D02*
X434252D01*
X400394Y420079D02*
X403543Y423228D01*
X400394Y417126D02*
Y420079D01*
X415354Y407480D02*
Y409646D01*
X429134Y425000D02*
Y427165D01*
X435039Y425000D02*
Y427165D01*
X396654Y407677D02*
X398622Y409646D01*
X396654Y399606D02*
Y407677D01*
X398622Y409646D02*
X400394D01*
X408858Y417126D02*
X410630D01*
X407480Y415748D02*
X408858Y417126D01*
X407480Y398622D02*
Y415748D01*
X429213Y395276D02*
X435512Y401575D01*
X400984Y395276D02*
X429213D01*
X396654Y399606D02*
X400984Y395276D01*
X407480Y398622D02*
X409449Y396654D01*
X417638D01*
X422559Y401575D01*
X396654Y413386D02*
X400394D01*
M02*
