G04*
G04 #@! TF.GenerationSoftware,Altium Limited,CircuitStudio,1.5.2 (30)*
G04*
G04 Layer_Color=15065295*
%FSLAX25Y25*%
%MOIN*%
G70*
G01*
G75*
%ADD17C,0.01181*%
%ADD18C,0.00079*%
G36*
X432765Y412144D02*
X432818Y412141D01*
X432880Y412135D01*
X432952Y412128D01*
X433034Y412115D01*
X433119Y412099D01*
X433211Y412076D01*
X433310Y412049D01*
X433405Y412016D01*
X433503Y411977D01*
X433602Y411931D01*
X433694Y411879D01*
X433785Y411816D01*
X433867Y411744D01*
X433871Y411741D01*
X433887Y411725D01*
X433907Y411705D01*
X433933Y411672D01*
X433966Y411633D01*
X434002Y411587D01*
X434041Y411531D01*
X434081Y411469D01*
X434120Y411400D01*
X434159Y411324D01*
X434195Y411242D01*
X434228Y411154D01*
X434254Y411059D01*
X434274Y410960D01*
X434291Y410855D01*
X434294Y410744D01*
Y410741D01*
Y410727D01*
Y410711D01*
X434291Y410685D01*
Y410655D01*
X434287Y410619D01*
X434284Y410580D01*
X434277Y410537D01*
X434271Y410488D01*
X434264Y410439D01*
X434241Y410327D01*
X434212Y410213D01*
X434172Y410098D01*
Y410094D01*
X434166Y410084D01*
X434159Y410068D01*
X434149Y410045D01*
X434136Y410016D01*
X434120Y409983D01*
X434100Y409943D01*
X434077Y409901D01*
X434054Y409855D01*
X434025Y409806D01*
X433959Y409694D01*
X433920Y409635D01*
X433877Y409576D01*
X433835Y409514D01*
X433785Y409451D01*
X433782Y409448D01*
X433776Y409442D01*
X433766Y409429D01*
X433749Y409409D01*
X433730Y409386D01*
X433707Y409360D01*
X433674Y409327D01*
X433641Y409288D01*
X433598Y409245D01*
X433553Y409196D01*
X433500Y409143D01*
X433441Y409087D01*
X433379Y409025D01*
X433310Y408956D01*
X433231Y408884D01*
X433149Y408809D01*
X433143Y408805D01*
X433129Y408789D01*
X433106Y408769D01*
X433077Y408740D01*
X433041Y408707D01*
X432998Y408668D01*
X432952Y408625D01*
X432906Y408582D01*
X432808Y408487D01*
X432713Y408395D01*
X432670Y408353D01*
X432631Y408313D01*
X432598Y408281D01*
X432572Y408251D01*
X432565Y408245D01*
X432552Y408228D01*
X432529Y408202D01*
X432503Y408166D01*
X432470Y408126D01*
X432437Y408080D01*
X432405Y408031D01*
X432375Y407982D01*
X434294D01*
Y407087D01*
X430905D01*
Y407093D01*
X430909Y407110D01*
X430912Y407136D01*
X430919Y407172D01*
X430929Y407218D01*
X430938Y407270D01*
X430951Y407333D01*
X430968Y407398D01*
X430988Y407470D01*
X431010Y407546D01*
X431037Y407624D01*
X431070Y407706D01*
X431106Y407792D01*
X431145Y407877D01*
X431188Y407966D01*
X431237Y408051D01*
X431240Y408057D01*
X431250Y408071D01*
X431266Y408097D01*
X431292Y408133D01*
X431325Y408179D01*
X431368Y408235D01*
X431417Y408300D01*
X431476Y408372D01*
X431545Y408454D01*
X431624Y408546D01*
X431712Y408645D01*
X431811Y408753D01*
X431922Y408868D01*
X432044Y408989D01*
X432178Y409120D01*
X432323Y409258D01*
X432326Y409261D01*
X432329Y409265D01*
X432339Y409274D01*
X432352Y409284D01*
X432385Y409317D01*
X432427Y409356D01*
X432480Y409406D01*
X432536Y409461D01*
X432601Y409524D01*
X432667Y409589D01*
X432805Y409727D01*
X432870Y409796D01*
X432936Y409865D01*
X432995Y409927D01*
X433047Y409986D01*
X433090Y410039D01*
X433123Y410084D01*
X433126Y410088D01*
X433133Y410098D01*
X433143Y410114D01*
X433156Y410137D01*
X433169Y410163D01*
X433185Y410196D01*
X433205Y410229D01*
X433224Y410272D01*
X433241Y410314D01*
X433260Y410360D01*
X433293Y410459D01*
X433303Y410511D01*
X433313Y410567D01*
X433320Y410619D01*
X433323Y410675D01*
Y410678D01*
Y410688D01*
Y410708D01*
X433320Y410727D01*
X433316Y410757D01*
X433313Y410786D01*
X433310Y410822D01*
X433300Y410859D01*
X433280Y410941D01*
X433251Y411023D01*
X433231Y411062D01*
X433208Y411101D01*
X433179Y411141D01*
X433149Y411173D01*
X433146Y411177D01*
X433143Y411180D01*
X433133Y411190D01*
X433116Y411200D01*
X433100Y411213D01*
X433077Y411229D01*
X433054Y411246D01*
X433024Y411262D01*
X432992Y411275D01*
X432956Y411292D01*
X432916Y411308D01*
X432873Y411321D01*
X432828Y411331D01*
X432778Y411341D01*
X432726Y411344D01*
X432670Y411347D01*
X432641D01*
X432621Y411344D01*
X432595Y411341D01*
X432565Y411338D01*
X432532Y411331D01*
X432496Y411324D01*
X432421Y411301D01*
X432339Y411269D01*
X432300Y411249D01*
X432260Y411226D01*
X432224Y411197D01*
X432188Y411164D01*
X432185Y411160D01*
X432181Y411154D01*
X432172Y411144D01*
X432159Y411128D01*
X432145Y411108D01*
X432129Y411085D01*
X432113Y411055D01*
X432096Y411019D01*
X432077Y410980D01*
X432060Y410937D01*
X432044Y410888D01*
X432027Y410832D01*
X432011Y410773D01*
X431998Y410708D01*
X431988Y410636D01*
X431981Y410560D01*
X431020Y410655D01*
Y410659D01*
Y410665D01*
X431024Y410675D01*
Y410691D01*
X431027Y410708D01*
X431030Y410731D01*
X431037Y410757D01*
X431040Y410786D01*
X431053Y410852D01*
X431073Y410927D01*
X431093Y411010D01*
X431119Y411098D01*
X431151Y411190D01*
X431188Y411285D01*
X431234Y411383D01*
X431283Y411475D01*
X431342Y411567D01*
X431404Y411652D01*
X431476Y411731D01*
X431558Y411800D01*
X431565Y411803D01*
X431578Y411816D01*
X431604Y411833D01*
X431640Y411856D01*
X431686Y411882D01*
X431739Y411911D01*
X431801Y411941D01*
X431870Y411974D01*
X431949Y412007D01*
X432037Y412036D01*
X432129Y412066D01*
X432231Y412092D01*
X432336Y412115D01*
X432450Y412131D01*
X432569Y412144D01*
X432693Y412148D01*
X432742D01*
X432765Y412144D01*
D02*
G37*
G36*
X423277Y407087D02*
X422309D01*
Y410727D01*
X422303Y410721D01*
X422286Y410705D01*
X422257Y410681D01*
X422214Y410645D01*
X422165Y410606D01*
X422103Y410557D01*
X422034Y410508D01*
X421955Y410452D01*
X421867Y410393D01*
X421771Y410330D01*
X421670Y410272D01*
X421558Y410209D01*
X421444Y410150D01*
X421322Y410094D01*
X421194Y410042D01*
X421060Y409996D01*
Y410872D01*
X421063D01*
X421076Y410878D01*
X421099Y410885D01*
X421125Y410898D01*
X421161Y410911D01*
X421204Y410931D01*
X421253Y410951D01*
X421306Y410977D01*
X421365Y411006D01*
X421427Y411042D01*
X421496Y411078D01*
X421568Y411121D01*
X421643Y411170D01*
X421719Y411223D01*
X421801Y411278D01*
X421883Y411341D01*
X421889Y411344D01*
X421903Y411357D01*
X421926Y411377D01*
X421955Y411403D01*
X421991Y411436D01*
X422031Y411475D01*
X422077Y411521D01*
X422126Y411574D01*
X422175Y411629D01*
X422227Y411692D01*
X422277Y411757D01*
X422326Y411830D01*
X422375Y411902D01*
X422418Y411980D01*
X422460Y412062D01*
X422493Y412148D01*
X423277D01*
Y407087D01*
D02*
G37*
D17*
X400591Y409449D02*
X404528D01*
X410433D02*
X414370D01*
X412402Y407480D02*
Y411417D01*
D18*
X417716Y423522D02*
X417520D01*
X417618D01*
Y423030D01*
X417520Y422931D01*
X417421D01*
X417323Y423030D01*
X417913Y422931D02*
X418110D01*
X418012D01*
Y423522D01*
X417913Y423423D01*
X417378Y398228D02*
X417181D01*
X417279D01*
Y397736D01*
X417181Y397638D01*
X417083D01*
X416984Y397736D01*
X417968Y397638D02*
X417575D01*
X417968Y398031D01*
Y398130D01*
X417870Y398228D01*
X417673D01*
X417575Y398130D01*
M02*
