G04*
G04 #@! TF.GenerationSoftware,Altium Limited,CircuitStudio,1.5.2 (30)*
G04*
G04 Layer_Color=13948096*
%FSLAX25Y25*%
%MOIN*%
G70*
G01*
G75*
%ADD18C,0.00079*%
%ADD23C,0.00787*%
G36*
X424124Y430898D02*
Y430782D01*
X424122Y430674D01*
X424117Y430573D01*
X424112Y430479D01*
X424107Y430393D01*
X424100Y430315D01*
X424095Y430243D01*
X424087Y430179D01*
X424080Y430123D01*
X424073Y430074D01*
X424068Y430034D01*
X424063Y430000D01*
X424058Y429973D01*
X424053Y429953D01*
X424051Y429943D01*
Y429938D01*
X424041Y429896D01*
X424026Y429857D01*
X423996Y429781D01*
X423959Y429709D01*
X423942Y429677D01*
X423925Y429645D01*
X423908Y429619D01*
X423891Y429594D01*
X423876Y429572D01*
X423864Y429552D01*
X423851Y429537D01*
X423844Y429528D01*
X423839Y429520D01*
X423837Y429518D01*
X423805Y429481D01*
X423770Y429446D01*
X423699Y429382D01*
X423625Y429328D01*
X423554Y429282D01*
X423522Y429262D01*
X423492Y429242D01*
X423463Y429227D01*
X423441Y429215D01*
X423421Y429205D01*
X423406Y429198D01*
X423396Y429195D01*
X423394Y429193D01*
X423337Y429171D01*
X423278Y429153D01*
X423214Y429136D01*
X423148Y429122D01*
X423010Y429099D01*
X422943Y429092D01*
X422877Y429085D01*
X422816Y429080D01*
X422759Y429077D01*
X422705Y429075D01*
X422661Y429072D01*
X422624Y429070D01*
X422572D01*
X422488Y429072D01*
X422412Y429075D01*
X422338Y429080D01*
X422269Y429087D01*
X422203Y429097D01*
X422144Y429107D01*
X422090Y429117D01*
X422038Y429127D01*
X421994Y429136D01*
X421955Y429146D01*
X421923Y429156D01*
X421893Y429166D01*
X421873Y429173D01*
X421856Y429178D01*
X421846Y429183D01*
X421844D01*
X421792Y429205D01*
X421745Y429230D01*
X421699Y429254D01*
X421657Y429279D01*
X421618Y429306D01*
X421581Y429331D01*
X421549Y429355D01*
X421519Y429380D01*
X421492Y429402D01*
X421468Y429424D01*
X421448Y429444D01*
X421431Y429459D01*
X421418Y429473D01*
X421409Y429483D01*
X421404Y429488D01*
X421401Y429491D01*
X421372Y429528D01*
X421342Y429567D01*
X421295Y429648D01*
X421256Y429727D01*
X421224Y429801D01*
X421212Y429835D01*
X421199Y429867D01*
X421192Y429894D01*
X421185Y429919D01*
X421180Y429938D01*
X421175Y429953D01*
X421172Y429963D01*
Y429965D01*
X421160Y430022D01*
X421150Y430088D01*
X421143Y430160D01*
X421136Y430236D01*
X421128Y430315D01*
X421123Y430393D01*
X421121Y430475D01*
X421116Y430553D01*
X421113Y430627D01*
X421111Y430698D01*
Y430762D01*
X421108Y430817D01*
Y430841D01*
Y430863D01*
Y430880D01*
Y430898D01*
Y430910D01*
Y430920D01*
Y430925D01*
Y430927D01*
Y432915D01*
X421873D01*
Y430821D01*
Y430740D01*
X421876Y430666D01*
Y430595D01*
X421878Y430531D01*
X421881Y430475D01*
X421883Y430420D01*
X421888Y430374D01*
X421891Y430332D01*
X421893Y430295D01*
X421898Y430266D01*
X421901Y430238D01*
X421903Y430216D01*
X421905Y430201D01*
Y430189D01*
X421908Y430182D01*
Y430179D01*
X421915Y430145D01*
X421925Y430111D01*
X421952Y430049D01*
X421984Y429992D01*
X422019Y429946D01*
X422036Y429926D01*
X422051Y429906D01*
X422065Y429891D01*
X422078Y429879D01*
X422090Y429869D01*
X422097Y429862D01*
X422102Y429857D01*
X422105Y429855D01*
X422137Y429833D01*
X422174Y429810D01*
X422211Y429793D01*
X422250Y429778D01*
X422331Y429754D01*
X422412Y429739D01*
X422449Y429734D01*
X422483Y429729D01*
X422513Y429727D01*
X422540Y429724D01*
X422562Y429722D01*
X422594D01*
X422653Y429724D01*
X422707Y429727D01*
X422759Y429734D01*
X422808Y429744D01*
X422853Y429754D01*
X422894Y429766D01*
X422931Y429778D01*
X422966Y429793D01*
X422998Y429805D01*
X423022Y429818D01*
X423047Y429830D01*
X423064Y429840D01*
X423079Y429850D01*
X423089Y429857D01*
X423096Y429860D01*
X423099Y429862D01*
X423131Y429889D01*
X423163Y429919D01*
X423189Y429948D01*
X423212Y429980D01*
X423234Y430010D01*
X423253Y430042D01*
X423285Y430101D01*
X423298Y430128D01*
X423308Y430152D01*
X423315Y430174D01*
X423322Y430194D01*
X423327Y430211D01*
X423330Y430224D01*
X423332Y430231D01*
Y430233D01*
X423337Y430266D01*
X423342Y430302D01*
X423347Y430347D01*
X423349Y430393D01*
X423352Y430445D01*
X423354Y430497D01*
X423357Y430605D01*
X423359Y430657D01*
Y430703D01*
X423362Y430748D01*
Y430787D01*
Y430819D01*
Y430844D01*
Y430853D01*
Y430861D01*
Y430863D01*
Y430866D01*
Y432915D01*
X424124D01*
Y430898D01*
D02*
G37*
G36*
X408353Y430142D02*
X406929D01*
Y430866D01*
X408353D01*
Y430142D01*
D02*
G37*
G36*
X417453D02*
X416028D01*
Y430866D01*
X417453D01*
Y430142D01*
D02*
G37*
G36*
X430014Y429134D02*
X429249D01*
Y432915D01*
X430014D01*
Y429134D01*
D02*
G37*
G36*
X414363Y432976D02*
X414439Y432974D01*
X414513Y432967D01*
X414582Y432959D01*
X414648Y432949D01*
X414710Y432937D01*
X414767Y432925D01*
X414818Y432912D01*
X414865Y432900D01*
X414907Y432888D01*
X414941Y432878D01*
X414973Y432866D01*
X414995Y432858D01*
X415013Y432851D01*
X415025Y432849D01*
X415027Y432846D01*
X415084Y432821D01*
X415135Y432792D01*
X415185Y432762D01*
X415232Y432730D01*
X415273Y432701D01*
X415313Y432669D01*
X415347Y432637D01*
X415379Y432607D01*
X415406Y432578D01*
X415431Y432551D01*
X415453Y432526D01*
X415470Y432507D01*
X415482Y432489D01*
X415492Y432477D01*
X415497Y432467D01*
X415500Y432465D01*
X415529Y432418D01*
X415554Y432369D01*
X415576Y432322D01*
X415593Y432275D01*
X415610Y432229D01*
X415623Y432184D01*
X415632Y432140D01*
X415642Y432101D01*
X415647Y432064D01*
X415652Y432029D01*
X415657Y432000D01*
X415660Y431973D01*
X415662Y431953D01*
Y431936D01*
Y431926D01*
Y431923D01*
X415657Y431842D01*
X415647Y431764D01*
X415630Y431687D01*
X415608Y431616D01*
X415581Y431550D01*
X415551Y431486D01*
X415522Y431429D01*
X415487Y431375D01*
X415455Y431328D01*
X415426Y431286D01*
X415396Y431250D01*
X415369Y431220D01*
X415347Y431195D01*
X415330Y431178D01*
X415320Y431168D01*
X415315Y431163D01*
X415263Y431121D01*
X415207Y431085D01*
X415143Y431048D01*
X415076Y431011D01*
X415005Y430979D01*
X414934Y430947D01*
X414860Y430920D01*
X414791Y430893D01*
X414722Y430871D01*
X414658Y430849D01*
X414602Y430831D01*
X414552Y430817D01*
X414530Y430812D01*
X414511Y430804D01*
X414494Y430799D01*
X414479Y430797D01*
X414466Y430794D01*
X414459Y430792D01*
X414454Y430789D01*
X414452D01*
X414365Y430767D01*
X414289Y430748D01*
X414218Y430730D01*
X414154Y430713D01*
X414097Y430698D01*
X414048Y430686D01*
X414006Y430674D01*
X413967Y430664D01*
X413935Y430654D01*
X413908Y430647D01*
X413886Y430639D01*
X413869Y430634D01*
X413856Y430629D01*
X413849Y430627D01*
X413844Y430625D01*
X413842D01*
X413807Y430610D01*
X413773Y430598D01*
X413743Y430583D01*
X413716Y430568D01*
X413692Y430556D01*
X413667Y430541D01*
X413630Y430516D01*
X413600Y430494D01*
X413581Y430475D01*
X413568Y430465D01*
X413566Y430460D01*
X413539Y430423D01*
X413519Y430383D01*
X413507Y430347D01*
X413497Y430310D01*
X413492Y430278D01*
X413487Y430253D01*
Y430243D01*
Y430236D01*
Y430233D01*
Y430231D01*
X413490Y430192D01*
X413495Y430155D01*
X413505Y430120D01*
X413517Y430086D01*
X413546Y430024D01*
X413581Y429970D01*
X413598Y429946D01*
X413615Y429926D01*
X413630Y429906D01*
X413645Y429891D01*
X413657Y429879D01*
X413667Y429872D01*
X413672Y429867D01*
X413674Y429865D01*
X413711Y429837D01*
X413751Y429813D01*
X413795Y429793D01*
X413839Y429776D01*
X413886Y429761D01*
X413933Y429746D01*
X414021Y429729D01*
X414065Y429722D01*
X414102Y429717D01*
X414139Y429714D01*
X414169Y429712D01*
X414196Y429709D01*
X414230D01*
X414294Y429712D01*
X414353Y429717D01*
X414412Y429727D01*
X414464Y429737D01*
X414513Y429749D01*
X414560Y429764D01*
X414602Y429781D01*
X414639Y429798D01*
X414673Y429813D01*
X414703Y429830D01*
X414727Y429845D01*
X414749Y429857D01*
X414764Y429867D01*
X414776Y429877D01*
X414784Y429882D01*
X414786Y429884D01*
X414823Y429919D01*
X414857Y429958D01*
X414887Y430000D01*
X414914Y430044D01*
X414939Y430091D01*
X414961Y430137D01*
X414981Y430182D01*
X414998Y430226D01*
X415013Y430268D01*
X415025Y430307D01*
X415035Y430344D01*
X415042Y430374D01*
X415049Y430401D01*
X415054Y430418D01*
X415057Y430430D01*
Y430435D01*
X415800Y430364D01*
X415782Y430248D01*
X415758Y430140D01*
X415728Y430039D01*
X415696Y429946D01*
X415660Y429860D01*
X415620Y429778D01*
X415581Y429707D01*
X415541Y429643D01*
X415502Y429587D01*
X415465Y429535D01*
X415431Y429493D01*
X415401Y429459D01*
X415377Y429431D01*
X415357Y429412D01*
X415345Y429402D01*
X415340Y429397D01*
X415263Y429338D01*
X415182Y429289D01*
X415096Y429245D01*
X415005Y429208D01*
X414914Y429176D01*
X414823Y429149D01*
X414732Y429127D01*
X414643Y429109D01*
X414562Y429095D01*
X414486Y429085D01*
X414415Y429077D01*
X414385Y429075D01*
X414356Y429072D01*
X414329Y429070D01*
X414287D01*
X414270Y429067D01*
X414238D01*
X414147Y429070D01*
X414060Y429072D01*
X413979Y429080D01*
X413901Y429090D01*
X413829Y429099D01*
X413760Y429109D01*
X413699Y429122D01*
X413642Y429136D01*
X413591Y429149D01*
X413546Y429161D01*
X413507Y429171D01*
X413475Y429181D01*
X413450Y429190D01*
X413431Y429198D01*
X413421Y429200D01*
X413416Y429203D01*
X413357Y429230D01*
X413300Y429259D01*
X413246Y429294D01*
X413197Y429326D01*
X413153Y429363D01*
X413111Y429397D01*
X413072Y429431D01*
X413037Y429466D01*
X413008Y429498D01*
X412981Y429528D01*
X412958Y429555D01*
X412939Y429577D01*
X412926Y429596D01*
X412914Y429611D01*
X412909Y429621D01*
X412907Y429623D01*
X412875Y429677D01*
X412848Y429732D01*
X412823Y429786D01*
X412801Y429840D01*
X412784Y429891D01*
X412769Y429941D01*
X412757Y429990D01*
X412747Y430037D01*
X412740Y430079D01*
X412735Y430115D01*
X412730Y430150D01*
X412727Y430179D01*
X412725Y430201D01*
Y430219D01*
Y430231D01*
Y430233D01*
X412727Y430300D01*
X412732Y430361D01*
X412740Y430423D01*
X412747Y430479D01*
X412759Y430534D01*
X412772Y430583D01*
X412786Y430627D01*
X412799Y430669D01*
X412813Y430708D01*
X412828Y430740D01*
X412840Y430770D01*
X412850Y430792D01*
X412860Y430812D01*
X412867Y430824D01*
X412872Y430834D01*
X412875Y430836D01*
X412904Y430880D01*
X412936Y430922D01*
X412968Y430962D01*
X413003Y430999D01*
X413037Y431033D01*
X413074Y431065D01*
X413106Y431095D01*
X413140Y431119D01*
X413172Y431144D01*
X413200Y431163D01*
X413227Y431181D01*
X413249Y431195D01*
X413268Y431205D01*
X413281Y431213D01*
X413291Y431217D01*
X413293Y431220D01*
X413347Y431247D01*
X413404Y431272D01*
X413468Y431299D01*
X413534Y431323D01*
X413669Y431370D01*
X413738Y431390D01*
X413805Y431409D01*
X413869Y431429D01*
X413925Y431444D01*
X413979Y431459D01*
X414026Y431471D01*
X414063Y431481D01*
X414080Y431483D01*
X414092Y431488D01*
X414102Y431491D01*
X414110D01*
X414115Y431493D01*
X414117D01*
X414218Y431518D01*
X414306Y431542D01*
X414390Y431567D01*
X414462Y431589D01*
X414528Y431611D01*
X414584Y431631D01*
X414634Y431650D01*
X414678Y431670D01*
X414712Y431687D01*
X414744Y431702D01*
X414769Y431714D01*
X414786Y431727D01*
X414801Y431734D01*
X414811Y431742D01*
X414816Y431744D01*
X414818Y431746D01*
X414838Y431766D01*
X414855Y431783D01*
X414885Y431823D01*
X414904Y431862D01*
X414917Y431896D01*
X414926Y431928D01*
X414929Y431953D01*
X414931Y431963D01*
Y431970D01*
Y431973D01*
Y431975D01*
X414929Y432002D01*
X414926Y432027D01*
X414912Y432074D01*
X414892Y432115D01*
X414870Y432150D01*
X414848Y432174D01*
X414830Y432194D01*
X414816Y432206D01*
X414813Y432211D01*
X414811D01*
X414774Y432236D01*
X414735Y432256D01*
X414693Y432275D01*
X414651Y432290D01*
X414562Y432315D01*
X414479Y432329D01*
X414442Y432334D01*
X414405Y432339D01*
X414373Y432342D01*
X414343Y432344D01*
X414321Y432347D01*
X414289D01*
X414230Y432344D01*
X414176Y432342D01*
X414124Y432334D01*
X414078Y432327D01*
X414033Y432317D01*
X413994Y432307D01*
X413960Y432295D01*
X413928Y432283D01*
X413898Y432270D01*
X413873Y432258D01*
X413854Y432248D01*
X413837Y432238D01*
X413824Y432231D01*
X413814Y432224D01*
X413810Y432221D01*
X413807Y432219D01*
X413778Y432194D01*
X413751Y432165D01*
X413728Y432133D01*
X413706Y432101D01*
X413669Y432032D01*
X413640Y431963D01*
X413630Y431931D01*
X413620Y431899D01*
X413613Y431872D01*
X413605Y431847D01*
X413600Y431828D01*
X413598Y431813D01*
X413596Y431803D01*
Y431801D01*
X412833Y431835D01*
X412840Y431931D01*
X412855Y432019D01*
X412875Y432105D01*
X412899Y432184D01*
X412929Y432258D01*
X412961Y432327D01*
X412995Y432388D01*
X413030Y432445D01*
X413064Y432497D01*
X413096Y432541D01*
X413128Y432578D01*
X413155Y432610D01*
X413177Y432634D01*
X413197Y432652D01*
X413207Y432664D01*
X413212Y432666D01*
X413283Y432721D01*
X413362Y432770D01*
X413443Y432812D01*
X413532Y432846D01*
X413620Y432878D01*
X413709Y432903D01*
X413797Y432922D01*
X413881Y432939D01*
X413962Y432952D01*
X414038Y432962D01*
X414105Y432969D01*
X414137Y432971D01*
X414166Y432974D01*
X414191Y432976D01*
X414213D01*
X414233Y432979D01*
X414282D01*
X414363Y432976D01*
D02*
G37*
G36*
X406890Y429134D02*
X406080D01*
X405768Y429992D01*
X404257D01*
X403925Y429134D01*
X403096D01*
X404609Y432915D01*
X405418D01*
X406890Y429134D01*
D02*
G37*
G36*
X412464D02*
X411655D01*
X411342Y429992D01*
X409832D01*
X409500Y429134D01*
X408671D01*
X410183Y432915D01*
X410993D01*
X412464Y429134D01*
D02*
G37*
G36*
X401696Y432927D02*
X401785Y432917D01*
X401871Y432905D01*
X401950Y432888D01*
X402026Y432868D01*
X402095Y432846D01*
X402162Y432824D01*
X402220Y432799D01*
X402272Y432775D01*
X402319Y432753D01*
X402358Y432730D01*
X402393Y432711D01*
X402420Y432693D01*
X402439Y432681D01*
X402449Y432671D01*
X402454Y432669D01*
X402516Y432617D01*
X402570Y432558D01*
X402617Y432494D01*
X402661Y432425D01*
X402698Y432357D01*
X402732Y432283D01*
X402759Y432211D01*
X402784Y432142D01*
X402804Y432076D01*
X402818Y432015D01*
X402833Y431958D01*
X402843Y431909D01*
X402845Y431887D01*
X402850Y431867D01*
X402853Y431850D01*
X402855Y431837D01*
Y431825D01*
X402858Y431818D01*
Y431813D01*
Y431810D01*
X402137Y431739D01*
X402132Y431796D01*
X402125Y431850D01*
X402115Y431899D01*
X402102Y431943D01*
X402090Y431985D01*
X402078Y432022D01*
X402066Y432054D01*
X402051Y432083D01*
X402038Y432111D01*
X402026Y432133D01*
X402014Y432150D01*
X402004Y432165D01*
X401994Y432177D01*
X401987Y432184D01*
X401984Y432189D01*
X401982Y432192D01*
X401955Y432216D01*
X401928Y432238D01*
X401898Y432256D01*
X401869Y432270D01*
X401807Y432295D01*
X401751Y432312D01*
X401724Y432317D01*
X401699Y432322D01*
X401677Y432325D01*
X401657Y432327D01*
X401642Y432329D01*
X401620D01*
X401579Y432327D01*
X401539Y432325D01*
X401502Y432317D01*
X401468Y432310D01*
X401436Y432300D01*
X401406Y432288D01*
X401379Y432275D01*
X401355Y432265D01*
X401333Y432253D01*
X401315Y432241D01*
X401298Y432229D01*
X401286Y432219D01*
X401273Y432211D01*
X401266Y432204D01*
X401264Y432201D01*
X401261Y432199D01*
X401239Y432174D01*
X401217Y432145D01*
X401200Y432115D01*
X401185Y432086D01*
X401163Y432024D01*
X401148Y431963D01*
X401141Y431936D01*
X401138Y431909D01*
X401136Y431887D01*
X401133Y431865D01*
X401131Y431850D01*
Y431835D01*
Y431828D01*
Y431825D01*
X401133Y431783D01*
X401138Y431744D01*
X401146Y431702D01*
X401153Y431663D01*
X401178Y431589D01*
X401192Y431555D01*
X401204Y431523D01*
X401219Y431491D01*
X401234Y431466D01*
X401246Y431441D01*
X401256Y431422D01*
X401266Y431404D01*
X401273Y431392D01*
X401278Y431385D01*
X401281Y431382D01*
X401305Y431348D01*
X401337Y431309D01*
X401377Y431264D01*
X401421Y431217D01*
X401470Y431166D01*
X401519Y431114D01*
X401623Y431011D01*
X401672Y430962D01*
X401721Y430915D01*
X401763Y430873D01*
X401802Y430836D01*
X401834Y430807D01*
X401859Y430782D01*
X401869Y430775D01*
X401876Y430767D01*
X401879Y430765D01*
X401881Y430762D01*
X401989Y430659D01*
X402090Y430561D01*
X402181Y430470D01*
X402265Y430383D01*
X402339Y430302D01*
X402405Y430229D01*
X402464Y430160D01*
X402516Y430098D01*
X402560Y430044D01*
X402597Y429995D01*
X402629Y429953D01*
X402654Y429919D01*
X402673Y429891D01*
X402685Y429872D01*
X402693Y429862D01*
X402695Y429857D01*
X402732Y429793D01*
X402764Y429727D01*
X402794Y429663D01*
X402821Y429599D01*
X402845Y429537D01*
X402865Y429478D01*
X402882Y429422D01*
X402897Y429368D01*
X402909Y429318D01*
X402919Y429272D01*
X402926Y429232D01*
X402934Y429198D01*
X402939Y429171D01*
X402941Y429151D01*
X402944Y429139D01*
Y429134D01*
X400403D01*
Y429805D01*
X401842D01*
X401820Y429842D01*
X401795Y429879D01*
X401770Y429914D01*
X401746Y429943D01*
X401726Y429970D01*
X401709Y429990D01*
X401699Y430002D01*
X401694Y430007D01*
X401674Y430029D01*
X401650Y430054D01*
X401620Y430083D01*
X401588Y430115D01*
X401517Y430184D01*
X401443Y430256D01*
X401409Y430288D01*
X401374Y430320D01*
X401342Y430349D01*
X401315Y430374D01*
X401293Y430396D01*
X401276Y430411D01*
X401266Y430423D01*
X401261Y430425D01*
X401200Y430482D01*
X401141Y430536D01*
X401089Y430588D01*
X401042Y430634D01*
X400998Y430676D01*
X400958Y430716D01*
X400924Y430753D01*
X400892Y430785D01*
X400868Y430814D01*
X400843Y430839D01*
X400826Y430858D01*
X400811Y430875D01*
X400799Y430890D01*
X400791Y430900D01*
X400786Y430905D01*
X400784Y430907D01*
X400747Y430954D01*
X400715Y431001D01*
X400683Y431045D01*
X400654Y431090D01*
X400604Y431173D01*
X400582Y431210D01*
X400565Y431245D01*
X400548Y431277D01*
X400533Y431306D01*
X400521Y431331D01*
X400511Y431353D01*
X400503Y431370D01*
X400498Y431382D01*
X400494Y431390D01*
Y431392D01*
X400464Y431478D01*
X400442Y431564D01*
X400425Y431648D01*
X400420Y431685D01*
X400415Y431722D01*
X400410Y431754D01*
X400408Y431783D01*
X400405Y431810D01*
Y431833D01*
X400403Y431852D01*
Y431865D01*
Y431874D01*
Y431877D01*
X400405Y431960D01*
X400417Y432039D01*
X400432Y432113D01*
X400452Y432184D01*
X400476Y432251D01*
X400503Y432312D01*
X400533Y432369D01*
X400562Y432420D01*
X400592Y432467D01*
X400622Y432509D01*
X400649Y432543D01*
X400673Y432573D01*
X400693Y432597D01*
X400708Y432612D01*
X400720Y432625D01*
X400722Y432627D01*
X400784Y432681D01*
X400853Y432728D01*
X400922Y432767D01*
X400995Y432802D01*
X401069Y432831D01*
X401141Y432856D01*
X401214Y432875D01*
X401283Y432893D01*
X401347Y432905D01*
X401409Y432915D01*
X401463Y432920D01*
X401510Y432925D01*
X401549Y432927D01*
X401566Y432930D01*
X401603D01*
X401696Y432927D01*
D02*
G37*
G36*
X434053Y430543D02*
X435042Y429134D01*
X434193D01*
X433630Y429983D01*
X433074Y429134D01*
X432183D01*
X433197Y430575D01*
X432267Y431872D01*
X433121D01*
X433630Y431119D01*
X434114Y431872D01*
X435000D01*
X434053Y430543D01*
D02*
G37*
G36*
X419327Y432927D02*
X419384Y432925D01*
X419438Y432920D01*
X419490Y432912D01*
X419539Y432903D01*
X419586Y432893D01*
X419630Y432883D01*
X419669Y432871D01*
X419706Y432861D01*
X419738Y432849D01*
X419765Y432839D01*
X419790Y432831D01*
X419809Y432821D01*
X419822Y432817D01*
X419832Y432814D01*
X419834Y432812D01*
X419881Y432789D01*
X419923Y432765D01*
X419965Y432738D01*
X420001Y432713D01*
X420036Y432686D01*
X420068Y432659D01*
X420097Y432632D01*
X420124Y432607D01*
X420147Y432583D01*
X420169Y432561D01*
X420186Y432541D01*
X420198Y432524D01*
X420211Y432509D01*
X420218Y432499D01*
X420223Y432492D01*
X420225Y432489D01*
X420250Y432450D01*
X420274Y432408D01*
X420316Y432317D01*
X420353Y432226D01*
X420383Y432140D01*
X420395Y432101D01*
X420407Y432061D01*
X420417Y432029D01*
X420425Y432000D01*
X420429Y431975D01*
X420434Y431958D01*
X420437Y431948D01*
Y431943D01*
X419768Y431830D01*
X419760Y431874D01*
X419753Y431916D01*
X419743Y431955D01*
X419731Y431992D01*
X419719Y432027D01*
X419706Y432056D01*
X419691Y432083D01*
X419679Y432111D01*
X419664Y432133D01*
X419652Y432150D01*
X419642Y432167D01*
X419630Y432179D01*
X419623Y432192D01*
X419615Y432199D01*
X419613Y432201D01*
X419610Y432204D01*
X419586Y432226D01*
X419559Y432248D01*
X419531Y432265D01*
X419504Y432280D01*
X419450Y432302D01*
X419401Y432317D01*
X419357Y432327D01*
X419337Y432329D01*
X419322Y432332D01*
X419308Y432334D01*
X419256D01*
X419224Y432329D01*
X419163Y432317D01*
X419111Y432297D01*
X419069Y432278D01*
X419035Y432258D01*
X419007Y432238D01*
X419000Y432231D01*
X418993Y432226D01*
X418990Y432224D01*
X418988Y432221D01*
X418968Y432199D01*
X418951Y432174D01*
X418922Y432125D01*
X418902Y432076D01*
X418890Y432027D01*
X418880Y431983D01*
X418877Y431965D01*
Y431948D01*
X418875Y431936D01*
Y431923D01*
Y431919D01*
Y431916D01*
X418877Y431874D01*
X418882Y431837D01*
X418890Y431801D01*
X418899Y431766D01*
X418912Y431734D01*
X418924Y431705D01*
X418939Y431677D01*
X418951Y431653D01*
X418966Y431631D01*
X418981Y431611D01*
X418993Y431596D01*
X419005Y431582D01*
X419015Y431572D01*
X419022Y431564D01*
X419027Y431559D01*
X419030Y431557D01*
X419059Y431532D01*
X419094Y431513D01*
X419128Y431496D01*
X419165Y431481D01*
X419202Y431468D01*
X419241Y431456D01*
X419313Y431441D01*
X419347Y431436D01*
X419379Y431434D01*
X419406Y431431D01*
X419431Y431429D01*
X419480D01*
X419559Y430839D01*
X419487Y430856D01*
X419426Y430871D01*
X419369Y430880D01*
X419320Y430885D01*
X419298Y430888D01*
X419281Y430890D01*
X419263D01*
X419251Y430893D01*
X419227D01*
X419187Y430890D01*
X419150Y430885D01*
X419116Y430878D01*
X419081Y430868D01*
X419020Y430841D01*
X418993Y430829D01*
X418968Y430814D01*
X418946Y430797D01*
X418924Y430785D01*
X418909Y430770D01*
X418894Y430758D01*
X418882Y430748D01*
X418875Y430740D01*
X418870Y430735D01*
X418867Y430733D01*
X418840Y430701D01*
X418818Y430669D01*
X418798Y430634D01*
X418781Y430598D01*
X418766Y430561D01*
X418757Y430526D01*
X418737Y430457D01*
X418732Y430425D01*
X418727Y430396D01*
X418725Y430369D01*
X418722Y430344D01*
X418720Y430327D01*
Y430312D01*
Y430302D01*
Y430300D01*
X418722Y430246D01*
X418727Y430197D01*
X418735Y430150D01*
X418744Y430106D01*
X418757Y430064D01*
X418769Y430027D01*
X418784Y429992D01*
X418796Y429960D01*
X418811Y429933D01*
X418825Y429909D01*
X418838Y429889D01*
X418850Y429872D01*
X418860Y429857D01*
X418867Y429847D01*
X418872Y429842D01*
X418875Y429840D01*
X418904Y429810D01*
X418934Y429783D01*
X418966Y429761D01*
X418998Y429741D01*
X419030Y429724D01*
X419062Y429712D01*
X419091Y429700D01*
X419121Y429692D01*
X419148Y429685D01*
X419172Y429680D01*
X419195Y429675D01*
X419214Y429673D01*
X419229Y429670D01*
X419251D01*
X419290Y429673D01*
X419327Y429675D01*
X419362Y429682D01*
X419394Y429692D01*
X419455Y429714D01*
X419507Y429741D01*
X419529Y429754D01*
X419551Y429766D01*
X419566Y429778D01*
X419581Y429788D01*
X419593Y429798D01*
X419600Y429805D01*
X419605Y429808D01*
X419608Y429810D01*
X419635Y429837D01*
X419657Y429869D01*
X419679Y429901D01*
X419699Y429936D01*
X419728Y430002D01*
X419753Y430069D01*
X419763Y430101D01*
X419770Y430128D01*
X419775Y430155D01*
X419780Y430177D01*
X419782Y430197D01*
X419785Y430209D01*
X419787Y430219D01*
Y430221D01*
X420491Y430137D01*
X420479Y430049D01*
X420459Y429968D01*
X420434Y429889D01*
X420407Y429815D01*
X420375Y429746D01*
X420343Y429682D01*
X420309Y429623D01*
X420274Y429569D01*
X420243Y429523D01*
X420208Y429481D01*
X420179Y429446D01*
X420154Y429417D01*
X420132Y429392D01*
X420115Y429377D01*
X420105Y429365D01*
X420100Y429363D01*
X420033Y429311D01*
X419965Y429267D01*
X419896Y429227D01*
X419824Y429193D01*
X419750Y429166D01*
X419682Y429141D01*
X419613Y429122D01*
X419546Y429107D01*
X419485Y429095D01*
X419426Y429085D01*
X419377Y429080D01*
X419332Y429075D01*
X419295Y429072D01*
X419281Y429070D01*
X419246D01*
X419148Y429075D01*
X419052Y429085D01*
X418961Y429102D01*
X418877Y429124D01*
X418796Y429151D01*
X418722Y429181D01*
X418653Y429213D01*
X418589Y429245D01*
X418535Y429277D01*
X418484Y429309D01*
X418442Y429338D01*
X418407Y429365D01*
X418378Y429387D01*
X418358Y429404D01*
X418346Y429414D01*
X418341Y429419D01*
X418277Y429486D01*
X418220Y429557D01*
X418171Y429628D01*
X418129Y429700D01*
X418095Y429771D01*
X418065Y429842D01*
X418041Y429911D01*
X418021Y429975D01*
X418006Y430037D01*
X417997Y430093D01*
X417987Y430142D01*
X417982Y430184D01*
X417979Y430219D01*
X417977Y430246D01*
Y430256D01*
Y430263D01*
Y430266D01*
Y430268D01*
X417979Y430332D01*
X417984Y430391D01*
X417994Y430450D01*
X418006Y430504D01*
X418023Y430556D01*
X418038Y430603D01*
X418058Y430649D01*
X418075Y430689D01*
X418092Y430725D01*
X418112Y430758D01*
X418127Y430787D01*
X418142Y430809D01*
X418156Y430829D01*
X418166Y430844D01*
X418171Y430851D01*
X418174Y430853D01*
X418211Y430898D01*
X418252Y430937D01*
X418294Y430974D01*
X418336Y431006D01*
X418380Y431033D01*
X418422Y431060D01*
X418466Y431082D01*
X418506Y431102D01*
X418545Y431117D01*
X418579Y431131D01*
X418611Y431144D01*
X418639Y431151D01*
X418661Y431158D01*
X418678Y431163D01*
X418688Y431166D01*
X418693D01*
X418644Y431195D01*
X418597Y431225D01*
X418552Y431254D01*
X418513Y431286D01*
X418474Y431318D01*
X418439Y431350D01*
X418407Y431382D01*
X418378Y431417D01*
X418324Y431483D01*
X418279Y431547D01*
X418243Y431613D01*
X418215Y431675D01*
X418193Y431734D01*
X418176Y431788D01*
X418164Y431835D01*
X418154Y431879D01*
X418149Y431914D01*
X418147Y431938D01*
Y431948D01*
Y431955D01*
Y431958D01*
Y431960D01*
X418149Y432024D01*
X418159Y432088D01*
X418171Y432150D01*
X418188Y432206D01*
X418208Y432263D01*
X418230Y432315D01*
X418255Y432364D01*
X418279Y432408D01*
X418304Y432447D01*
X418329Y432484D01*
X418351Y432514D01*
X418370Y432541D01*
X418388Y432563D01*
X418400Y432578D01*
X418410Y432588D01*
X418412Y432590D01*
X418476Y432649D01*
X418543Y432703D01*
X418611Y432748D01*
X418683Y432787D01*
X418754Y432819D01*
X418825Y432846D01*
X418897Y432868D01*
X418963Y432888D01*
X419027Y432900D01*
X419084Y432912D01*
X419138Y432920D01*
X419182Y432925D01*
X419219Y432927D01*
X419234Y432930D01*
X419271D01*
X419327Y432927D01*
D02*
G37*
G36*
X431836Y430142D02*
X430412D01*
Y430866D01*
X431836D01*
Y430142D01*
D02*
G37*
G36*
X428530Y429134D02*
X427822D01*
Y432111D01*
X427074Y429134D01*
X426338D01*
X425588Y432111D01*
Y429134D01*
X424877D01*
Y432915D01*
X426023D01*
X426702Y430334D01*
X427389Y432915D01*
X428530D01*
Y429134D01*
D02*
G37*
%LPC*%
G36*
X405022Y432032D02*
X404501Y430629D01*
X405534D01*
X405022Y432032D01*
D02*
G37*
G36*
X410597D02*
X410075Y430629D01*
X411108D01*
X410597Y432032D01*
D02*
G37*
%LPD*%
D18*
X429531Y413685D02*
Y413193D01*
X429433Y413095D01*
X429236D01*
X429138Y413193D01*
Y413685D01*
X428941Y413095D02*
X428744D01*
X428843D01*
Y413685D01*
X428941Y413587D01*
X429106Y423392D02*
X429205Y423490D01*
X429402D01*
X429500Y423392D01*
Y422998D01*
X429402Y422900D01*
X429205D01*
X429106Y422998D01*
X428910Y422900D02*
X428713D01*
X428811D01*
Y423490D01*
X428910Y423392D01*
X435106D02*
X435205Y423490D01*
X435402D01*
X435500Y423392D01*
Y422998D01*
X435402Y422900D01*
X435205D01*
X435106Y422998D01*
X434516Y422900D02*
X434910D01*
X434516Y423294D01*
Y423392D01*
X434615Y423490D01*
X434811D01*
X434910Y423392D01*
X415438Y411623D02*
X415536Y411722D01*
X415733D01*
X415832Y411623D01*
Y411230D01*
X415733Y411131D01*
X415536D01*
X415438Y411230D01*
X415241Y411623D02*
X415143Y411722D01*
X414946D01*
X414848Y411623D01*
Y411525D01*
X414946Y411427D01*
X415044D01*
X414946D01*
X414848Y411328D01*
Y411230D01*
X414946Y411131D01*
X415143D01*
X415241Y411230D01*
X406000Y413690D02*
Y413198D01*
X405902Y413100D01*
X405705D01*
X405606Y413198D01*
Y413690D01*
X405016Y413100D02*
X405410D01*
X405016Y413494D01*
Y413592D01*
X405114Y413690D01*
X405311D01*
X405410Y413592D01*
D23*
X404724Y409646D02*
G03*
X404724Y409646I-394J0D01*
G01*
M02*
