G04*
G04 #@! TF.GenerationSoftware,Altium Limited,Altium Designer,24.4.1 (13)*
G04*
G04 Layer_Color=32896*
%FSLAX44Y44*%
%MOMM*%
G71*
G04*
G04 #@! TF.SameCoordinates,C7BBAB54-F3BF-42AB-8C7F-2431C5DD3FE9*
G04*
G04*
G04 #@! TF.FilePolarity,Positive*
G04*
G01*
G75*
%ADD11C,0.0200*%
%ADD25C,0.2000*%
G36*
X2500Y132482D02*
Y137518D01*
X7500Y134982D01*
X2500Y132482D01*
D02*
G37*
G36*
X61435Y194146D02*
X61687Y194113D01*
X61804Y194094D01*
X61914Y194068D01*
X62018Y194048D01*
X62115Y194023D01*
X62199Y193997D01*
X62277Y193971D01*
X62342Y193945D01*
X62400Y193925D01*
X62445Y193906D01*
X62478Y193893D01*
X62497Y193887D01*
X62503Y193880D01*
X62717Y193770D01*
X62808Y193705D01*
X62899Y193640D01*
X62983Y193582D01*
X63060Y193517D01*
X63132Y193452D01*
X63190Y193394D01*
X63248Y193336D01*
X63300Y193284D01*
X63339Y193239D01*
X63371Y193193D01*
X63404Y193161D01*
X63423Y193135D01*
X63430Y193122D01*
X63436Y193116D01*
X63495Y193018D01*
X63553Y192921D01*
X63650Y192708D01*
X63734Y192487D01*
X63805Y192280D01*
X63838Y192190D01*
X63857Y192099D01*
X63883Y192021D01*
X63896Y191950D01*
X63909Y191891D01*
X63922Y191853D01*
X63928Y191820D01*
Y191814D01*
X62348Y191548D01*
X62335Y191652D01*
X62316Y191756D01*
X62290Y191846D01*
X62264Y191930D01*
X62231Y192015D01*
X62199Y192086D01*
X62167Y192151D01*
X62134Y192209D01*
X62102Y192261D01*
X62076Y192306D01*
X62044Y192345D01*
X62024Y192377D01*
X61998Y192403D01*
X61985Y192423D01*
X61979Y192429D01*
X61972Y192436D01*
X61914Y192487D01*
X61849Y192539D01*
X61720Y192617D01*
X61590Y192669D01*
X61474Y192708D01*
X61370Y192733D01*
X61325Y192740D01*
X61286D01*
X61260Y192747D01*
X61215D01*
X61053Y192733D01*
X60917Y192701D01*
X60794Y192662D01*
X60690Y192610D01*
X60606Y192559D01*
X60547Y192520D01*
X60509Y192487D01*
X60496Y192474D01*
X60405Y192364D01*
X60340Y192248D01*
X60288Y192131D01*
X60256Y192015D01*
X60237Y191911D01*
X60230Y191872D01*
Y191833D01*
X60224Y191801D01*
Y191775D01*
Y191762D01*
Y191756D01*
X60230Y191658D01*
X60237Y191568D01*
X60256Y191477D01*
X60282Y191399D01*
X60340Y191250D01*
X60405Y191127D01*
X60444Y191075D01*
X60476Y191030D01*
X60509Y190991D01*
X60535Y190959D01*
X60560Y190933D01*
X60580Y190914D01*
X60586Y190907D01*
X60593Y190901D01*
X60664Y190842D01*
X60742Y190797D01*
X60826Y190758D01*
X60917Y190719D01*
X61091Y190667D01*
X61266Y190635D01*
X61344Y190622D01*
X61422Y190616D01*
X61487Y190609D01*
X61545Y190603D01*
X61662D01*
X61849Y189204D01*
X61687Y189249D01*
X61538Y189281D01*
X61402Y189301D01*
X61286Y189320D01*
X61195Y189327D01*
X61156D01*
X61124Y189333D01*
X61066D01*
X60975Y189327D01*
X60884Y189314D01*
X60800Y189301D01*
X60722Y189275D01*
X60580Y189210D01*
X60457Y189145D01*
X60353Y189074D01*
X60314Y189042D01*
X60282Y189009D01*
X60250Y188983D01*
X60230Y188970D01*
X60224Y188958D01*
X60217Y188951D01*
X60152Y188880D01*
X60100Y188796D01*
X60055Y188711D01*
X60016Y188627D01*
X59952Y188459D01*
X59913Y188290D01*
X59893Y188219D01*
X59887Y188148D01*
X59880Y188083D01*
X59874Y188031D01*
X59867Y187986D01*
Y187947D01*
Y187928D01*
Y187921D01*
X59874Y187798D01*
X59880Y187675D01*
X59900Y187565D01*
X59926Y187461D01*
X59952Y187364D01*
X59984Y187273D01*
X60016Y187196D01*
X60049Y187118D01*
X60088Y187053D01*
X60120Y186995D01*
X60152Y186950D01*
X60178Y186904D01*
X60204Y186872D01*
X60224Y186852D01*
X60230Y186840D01*
X60237Y186833D01*
X60308Y186762D01*
X60379Y186703D01*
X60450Y186645D01*
X60528Y186600D01*
X60606Y186561D01*
X60677Y186529D01*
X60820Y186483D01*
X60943Y186451D01*
X60994Y186444D01*
X61040Y186438D01*
X61079Y186431D01*
X61130D01*
X61221Y186438D01*
X61305Y186444D01*
X61467Y186483D01*
X61610Y186535D01*
X61733Y186600D01*
X61836Y186658D01*
X61875Y186684D01*
X61908Y186710D01*
X61933Y186729D01*
X61953Y186749D01*
X61966Y186755D01*
X61972Y186762D01*
X62031Y186826D01*
X62089Y186898D01*
X62180Y187060D01*
X62257Y187222D01*
X62309Y187377D01*
X62335Y187448D01*
X62348Y187520D01*
X62368Y187578D01*
X62374Y187636D01*
X62387Y187682D01*
Y187714D01*
X62393Y187733D01*
Y187740D01*
X64058Y187533D01*
X64026Y187325D01*
X63980Y187131D01*
X63928Y186943D01*
X63864Y186775D01*
X63786Y186613D01*
X63708Y186457D01*
X63630Y186321D01*
X63546Y186198D01*
X63469Y186088D01*
X63391Y185984D01*
X63320Y185900D01*
X63261Y185835D01*
X63210Y185777D01*
X63164Y185738D01*
X63138Y185713D01*
X63132Y185706D01*
X62976Y185583D01*
X62814Y185473D01*
X62646Y185382D01*
X62478Y185304D01*
X62309Y185233D01*
X62141Y185175D01*
X61979Y185130D01*
X61823Y185097D01*
X61674Y185065D01*
X61545Y185045D01*
X61422Y185026D01*
X61318Y185019D01*
X61234Y185013D01*
X61169Y185007D01*
X61117D01*
X60884Y185013D01*
X60658Y185045D01*
X60444Y185084D01*
X60243Y185136D01*
X60049Y185201D01*
X59874Y185272D01*
X59712Y185343D01*
X59563Y185421D01*
X59433Y185499D01*
X59310Y185576D01*
X59213Y185641D01*
X59129Y185706D01*
X59064Y185758D01*
X59012Y185803D01*
X58987Y185829D01*
X58973Y185835D01*
X58818Y185998D01*
X58689Y186159D01*
X58572Y186328D01*
X58468Y186503D01*
X58391Y186671D01*
X58319Y186840D01*
X58261Y187001D01*
X58216Y187157D01*
X58177Y187299D01*
X58151Y187429D01*
X58131Y187552D01*
X58119Y187649D01*
X58112Y187733D01*
X58106Y187798D01*
Y187837D01*
Y187850D01*
X58112Y187999D01*
X58125Y188141D01*
X58151Y188277D01*
X58177Y188407D01*
X58209Y188530D01*
X58248Y188647D01*
X58293Y188750D01*
X58332Y188847D01*
X58378Y188932D01*
X58423Y189009D01*
X58462Y189081D01*
X58494Y189132D01*
X58520Y189178D01*
X58546Y189210D01*
X58559Y189230D01*
X58566Y189236D01*
X58656Y189340D01*
X58753Y189430D01*
X58850Y189521D01*
X58954Y189592D01*
X59051Y189664D01*
X59155Y189722D01*
X59258Y189774D01*
X59356Y189819D01*
X59446Y189858D01*
X59531Y189890D01*
X59602Y189923D01*
X59667Y189942D01*
X59725Y189955D01*
X59764Y189968D01*
X59790Y189974D01*
X59796D01*
X59679Y190039D01*
X59569Y190110D01*
X59466Y190182D01*
X59369Y190259D01*
X59278Y190331D01*
X59194Y190408D01*
X59045Y190564D01*
X58922Y190726D01*
X58818Y190881D01*
X58734Y191037D01*
X58663Y191179D01*
X58611Y191322D01*
X58572Y191451D01*
X58540Y191561D01*
X58520Y191665D01*
X58507Y191749D01*
X58501Y191807D01*
Y191846D01*
Y191859D01*
X58507Y192015D01*
X58527Y192164D01*
X58559Y192306D01*
X58598Y192442D01*
X58650Y192572D01*
X58702Y192695D01*
X58760Y192811D01*
X58818Y192915D01*
X58876Y193012D01*
X58935Y193096D01*
X58987Y193167D01*
X59038Y193232D01*
X59077Y193284D01*
X59110Y193316D01*
X59129Y193342D01*
X59135Y193349D01*
X59284Y193491D01*
X59440Y193614D01*
X59608Y193724D01*
X59777Y193815D01*
X59945Y193893D01*
X60114Y193964D01*
X60275Y194016D01*
X60437Y194055D01*
X60586Y194094D01*
X60722Y194113D01*
X60845Y194133D01*
X60956Y194146D01*
X61040Y194152D01*
X61104Y194158D01*
X61299D01*
X61435Y194146D01*
D02*
G37*
G36*
X19529Y194152D02*
X19742Y194133D01*
X19943Y194100D01*
X20138Y194061D01*
X20312Y194016D01*
X20481Y193964D01*
X20636Y193906D01*
X20772Y193848D01*
X20895Y193789D01*
X21012Y193731D01*
X21102Y193679D01*
X21187Y193634D01*
X21245Y193595D01*
X21290Y193563D01*
X21323Y193543D01*
X21329Y193537D01*
X21472Y193414D01*
X21601Y193271D01*
X21718Y193122D01*
X21815Y192960D01*
X21906Y192792D01*
X21983Y192623D01*
X22048Y192455D01*
X22106Y192287D01*
X22152Y192131D01*
X22191Y191982D01*
X22223Y191853D01*
X22243Y191736D01*
X22262Y191639D01*
X22268Y191600D01*
X22275Y191568D01*
Y191542D01*
X22281Y191522D01*
Y191509D01*
Y191503D01*
X20571Y191334D01*
X20559Y191471D01*
X20545Y191594D01*
X20520Y191710D01*
X20494Y191820D01*
X20468Y191917D01*
X20435Y192008D01*
X20403Y192086D01*
X20371Y192157D01*
X20338Y192215D01*
X20312Y192267D01*
X20286Y192313D01*
X20261Y192345D01*
X20241Y192377D01*
X20222Y192397D01*
X20215Y192403D01*
X20209Y192410D01*
X20144Y192468D01*
X20079Y192520D01*
X20008Y192559D01*
X19943Y192598D01*
X19794Y192656D01*
X19658Y192695D01*
X19535Y192714D01*
X19483Y192727D01*
X19438D01*
X19399Y192733D01*
X19347D01*
X19250Y192727D01*
X19153Y192721D01*
X18985Y192688D01*
X18836Y192636D01*
X18713Y192578D01*
X18667Y192552D01*
X18622Y192520D01*
X18583Y192494D01*
X18551Y192474D01*
X18525Y192449D01*
X18505Y192436D01*
X18499Y192429D01*
X18492Y192423D01*
X18441Y192364D01*
X18389Y192293D01*
X18311Y192157D01*
X18259Y192008D01*
X18220Y191866D01*
X18194Y191736D01*
X18188Y191684D01*
Y191639D01*
X18181Y191594D01*
Y191568D01*
Y191548D01*
Y191542D01*
X18188Y191445D01*
X18194Y191348D01*
X18240Y191153D01*
X18291Y190978D01*
X18356Y190816D01*
X18395Y190745D01*
X18427Y190680D01*
X18453Y190629D01*
X18479Y190577D01*
X18505Y190538D01*
X18525Y190512D01*
X18531Y190492D01*
X18538Y190486D01*
X18596Y190408D01*
X18674Y190311D01*
X18764Y190208D01*
X18874Y190097D01*
X18985Y189974D01*
X19108Y189858D01*
X19347Y189612D01*
X19470Y189495D01*
X19580Y189385D01*
X19684Y189288D01*
X19775Y189197D01*
X19852Y189126D01*
X19911Y189068D01*
X19950Y189035D01*
X19956Y189029D01*
X19963Y189022D01*
X20222Y188776D01*
X20461Y188543D01*
X20675Y188329D01*
X20876Y188122D01*
X21051Y187928D01*
X21213Y187753D01*
X21349Y187591D01*
X21472Y187442D01*
X21575Y187312D01*
X21666Y187196D01*
X21744Y187099D01*
X21802Y187021D01*
X21841Y186956D01*
X21873Y186911D01*
X21893Y186878D01*
X21899Y186872D01*
X21983Y186716D01*
X22061Y186567D01*
X22132Y186412D01*
X22197Y186263D01*
X22249Y186114D01*
X22294Y185978D01*
X22340Y185842D01*
X22372Y185713D01*
X22404Y185596D01*
X22424Y185492D01*
X22443Y185395D01*
X22456Y185317D01*
X22469Y185253D01*
X22476Y185201D01*
X22482Y185175D01*
Y185162D01*
X16458D01*
Y186755D01*
X19878D01*
X19827Y186840D01*
X19768Y186924D01*
X19710Y187008D01*
X19652Y187079D01*
X19606Y187137D01*
X19561Y187189D01*
X19535Y187215D01*
X19529Y187228D01*
X19483Y187280D01*
X19418Y187345D01*
X19354Y187409D01*
X19276Y187487D01*
X19101Y187649D01*
X18926Y187817D01*
X18842Y187895D01*
X18764Y187973D01*
X18687Y188038D01*
X18622Y188096D01*
X18570Y188148D01*
X18525Y188187D01*
X18499Y188213D01*
X18492Y188219D01*
X18343Y188355D01*
X18207Y188485D01*
X18084Y188601D01*
X17974Y188711D01*
X17871Y188815D01*
X17780Y188912D01*
X17696Y188996D01*
X17624Y189074D01*
X17560Y189139D01*
X17508Y189197D01*
X17462Y189249D01*
X17424Y189294D01*
X17398Y189327D01*
X17378Y189346D01*
X17372Y189359D01*
X17365Y189366D01*
X17203Y189586D01*
X17061Y189793D01*
X16944Y189987D01*
X16892Y190078D01*
X16847Y190162D01*
X16808Y190233D01*
X16776Y190305D01*
X16744Y190363D01*
X16718Y190408D01*
X16705Y190454D01*
X16692Y190480D01*
X16679Y190499D01*
Y190506D01*
X16608Y190713D01*
X16549Y190920D01*
X16510Y191114D01*
X16484Y191289D01*
X16478Y191367D01*
X16472Y191438D01*
X16465Y191503D01*
X16458Y191555D01*
Y191600D01*
Y191632D01*
Y191652D01*
Y191658D01*
X16465Y191853D01*
X16491Y192041D01*
X16530Y192222D01*
X16575Y192390D01*
X16633Y192546D01*
X16698Y192695D01*
X16769Y192824D01*
X16841Y192947D01*
X16912Y193057D01*
X16983Y193161D01*
X17048Y193239D01*
X17106Y193310D01*
X17152Y193368D01*
X17190Y193407D01*
X17216Y193433D01*
X17223Y193440D01*
X17372Y193569D01*
X17527Y193679D01*
X17696Y193770D01*
X17871Y193854D01*
X18039Y193925D01*
X18214Y193984D01*
X18389Y194029D01*
X18551Y194068D01*
X18706Y194100D01*
X18849Y194120D01*
X18978Y194139D01*
X19088Y194146D01*
X19179Y194152D01*
X19250Y194158D01*
X19308D01*
X19529Y194152D01*
D02*
G37*
G36*
X96203Y188504D02*
X98541Y185162D01*
X96534D01*
X95199Y187170D01*
X93878Y185162D01*
X91773D01*
X94176Y188575D01*
X91974Y191658D01*
X93982D01*
X95199Y189871D01*
X96346Y191658D01*
X98444D01*
X96203Y188504D01*
D02*
G37*
G36*
X83113Y185162D02*
X81436D01*
Y192215D01*
X79668Y185162D01*
X77925D01*
X76150Y192215D01*
X76144Y185162D01*
X74467D01*
Y194126D01*
X77187D01*
X78787Y188005D01*
X80406Y194126D01*
X83113D01*
Y185162D01*
D02*
G37*
G36*
X90944Y187552D02*
X87570D01*
Y189268D01*
X90944D01*
Y187552D01*
D02*
G37*
G36*
X56862D02*
X53488D01*
Y189268D01*
X56862D01*
Y187552D01*
D02*
G37*
G36*
X35300D02*
X31926D01*
Y189268D01*
X35300D01*
Y187552D01*
D02*
G37*
G36*
X72672Y189340D02*
Y189068D01*
X72666Y188808D01*
X72653Y188569D01*
X72646Y188349D01*
X72634Y188148D01*
X72614Y187960D01*
X72601Y187792D01*
X72582Y187643D01*
X72569Y187507D01*
X72556Y187390D01*
X72536Y187293D01*
X72523Y187209D01*
X72510Y187150D01*
X72504Y187105D01*
X72498Y187073D01*
Y187066D01*
X72439Y186872D01*
X72368Y186691D01*
X72284Y186522D01*
X72200Y186373D01*
X72161Y186308D01*
X72122Y186244D01*
X72083Y186192D01*
X72051Y186153D01*
X72031Y186114D01*
X72012Y186088D01*
X71999Y186075D01*
X71992Y186069D01*
X71837Y185900D01*
X71662Y185751D01*
X71487Y185615D01*
X71319Y185505D01*
X71241Y185460D01*
X71170Y185415D01*
X71105Y185382D01*
X71053Y185350D01*
X71008Y185330D01*
X70969Y185311D01*
X70950Y185304D01*
X70943Y185298D01*
X70813Y185246D01*
X70671Y185201D01*
X70516Y185162D01*
X70360Y185130D01*
X70036Y185078D01*
X69874Y185058D01*
X69719Y185045D01*
X69570Y185032D01*
X69434Y185019D01*
X69311Y185013D01*
X69207D01*
X69117Y185007D01*
X68994D01*
X68799Y185013D01*
X68611Y185019D01*
X68443Y185032D01*
X68274Y185052D01*
X68126Y185071D01*
X67983Y185091D01*
X67853Y185117D01*
X67730Y185142D01*
X67627Y185168D01*
X67536Y185194D01*
X67458Y185214D01*
X67387Y185233D01*
X67335Y185253D01*
X67303Y185266D01*
X67277Y185278D01*
X67271D01*
X67147Y185330D01*
X67037Y185389D01*
X66927Y185447D01*
X66830Y185505D01*
X66733Y185570D01*
X66649Y185628D01*
X66571Y185687D01*
X66500Y185745D01*
X66435Y185797D01*
X66377Y185849D01*
X66331Y185894D01*
X66293Y185926D01*
X66260Y185959D01*
X66241Y185984D01*
X66228Y185998D01*
X66221Y186004D01*
X66085Y186185D01*
X65969Y186373D01*
X65878Y186561D01*
X65800Y186742D01*
X65768Y186820D01*
X65742Y186898D01*
X65723Y186963D01*
X65710Y187021D01*
X65690Y187066D01*
X65684Y187099D01*
X65677Y187125D01*
Y187131D01*
X65651Y187267D01*
X65625Y187422D01*
X65606Y187591D01*
X65593Y187766D01*
X65574Y187953D01*
X65567Y188148D01*
X65554Y188336D01*
X65548Y188524D01*
X65541Y188698D01*
X65535Y188867D01*
Y189016D01*
X65528Y189152D01*
Y189204D01*
Y189255D01*
Y189301D01*
Y189340D01*
Y189372D01*
Y189391D01*
Y189404D01*
Y189411D01*
Y194126D01*
X67335D01*
Y189165D01*
Y188970D01*
X67342Y188796D01*
Y188627D01*
X67348Y188478D01*
X67355Y188336D01*
X67361Y188213D01*
X67368Y188102D01*
X67374Y187999D01*
X67387Y187915D01*
X67394Y187837D01*
X67400Y187779D01*
X67407Y187727D01*
X67413Y187688D01*
Y187656D01*
X67420Y187643D01*
Y187636D01*
X67439Y187552D01*
X67465Y187474D01*
X67523Y187325D01*
X67601Y187196D01*
X67685Y187079D01*
X67763Y186988D01*
X67828Y186924D01*
X67853Y186898D01*
X67873Y186878D01*
X67886Y186872D01*
X67892Y186865D01*
X67970Y186814D01*
X68054Y186762D01*
X68236Y186684D01*
X68430Y186632D01*
X68618Y186593D01*
X68709Y186580D01*
X68786Y186574D01*
X68864Y186561D01*
X68922D01*
X68980Y186555D01*
X69052D01*
X69188Y186561D01*
X69324Y186567D01*
X69440Y186587D01*
X69557Y186606D01*
X69667Y186632D01*
X69764Y186658D01*
X69855Y186691D01*
X69933Y186723D01*
X70010Y186749D01*
X70069Y186781D01*
X70127Y186807D01*
X70172Y186833D01*
X70205Y186852D01*
X70231Y186872D01*
X70244Y186878D01*
X70250Y186885D01*
X70328Y186950D01*
X70399Y187021D01*
X70464Y187092D01*
X70522Y187163D01*
X70613Y187306D01*
X70690Y187448D01*
X70742Y187571D01*
X70762Y187630D01*
X70775Y187675D01*
X70788Y187714D01*
X70794Y187740D01*
X70800Y187759D01*
Y187766D01*
X70813Y187837D01*
X70820Y187928D01*
X70833Y188031D01*
X70839Y188148D01*
X70846Y188264D01*
X70852Y188394D01*
X70859Y188647D01*
Y188770D01*
Y188886D01*
X70865Y188990D01*
Y189081D01*
Y189158D01*
Y189216D01*
Y189255D01*
Y189268D01*
Y194126D01*
X72672D01*
Y189340D01*
D02*
G37*
G36*
X86624Y185162D02*
X84817D01*
Y194126D01*
X86624D01*
Y185162D01*
D02*
G37*
G36*
X45048D02*
X43131D01*
X42392Y187196D01*
X38804D01*
X38027Y185162D01*
X36058D01*
X39646Y194126D01*
X41570D01*
X45048Y185162D01*
D02*
G37*
G36*
X31835D02*
X29918D01*
X29179Y187196D01*
X25591D01*
X24814Y185162D01*
X22845D01*
X26433Y194126D01*
X28357D01*
X31835Y185162D01*
D02*
G37*
G36*
X49543Y194269D02*
X49724Y194262D01*
X49899Y194249D01*
X50068Y194223D01*
X50223Y194204D01*
X50366Y194178D01*
X50502Y194146D01*
X50625Y194120D01*
X50735Y194087D01*
X50832Y194061D01*
X50916Y194029D01*
X50987Y194009D01*
X51039Y193990D01*
X51085Y193971D01*
X51111Y193964D01*
X51117Y193958D01*
X51253Y193899D01*
X51376Y193828D01*
X51493Y193757D01*
X51603Y193686D01*
X51700Y193608D01*
X51790Y193537D01*
X51875Y193459D01*
X51953Y193388D01*
X52017Y193316D01*
X52076Y193258D01*
X52127Y193200D01*
X52166Y193148D01*
X52199Y193109D01*
X52218Y193077D01*
X52231Y193057D01*
X52238Y193051D01*
X52302Y192941D01*
X52361Y192824D01*
X52412Y192714D01*
X52458Y192598D01*
X52497Y192487D01*
X52529Y192384D01*
X52548Y192280D01*
X52574Y192190D01*
X52587Y192099D01*
X52600Y192015D01*
X52607Y191943D01*
X52613Y191885D01*
X52620Y191833D01*
Y191801D01*
Y191775D01*
Y191768D01*
X52613Y191574D01*
X52587Y191386D01*
X52542Y191205D01*
X52490Y191037D01*
X52432Y190881D01*
X52361Y190732D01*
X52283Y190596D01*
X52205Y190473D01*
X52134Y190357D01*
X52056Y190259D01*
X51985Y190169D01*
X51927Y190097D01*
X51875Y190046D01*
X51829Y190000D01*
X51803Y189974D01*
X51797Y189968D01*
X51674Y189871D01*
X51538Y189780D01*
X51389Y189689D01*
X51227Y189605D01*
X51065Y189527D01*
X50890Y189456D01*
X50722Y189391D01*
X50553Y189327D01*
X50398Y189275D01*
X50249Y189223D01*
X50113Y189178D01*
X49990Y189145D01*
X49893Y189119D01*
X49854Y189106D01*
X49822Y189100D01*
X49796Y189087D01*
X49776D01*
X49763Y189081D01*
X49757D01*
X49556Y189029D01*
X49368Y188983D01*
X49200Y188944D01*
X49051Y188906D01*
X48915Y188867D01*
X48798Y188834D01*
X48695Y188808D01*
X48604Y188783D01*
X48533Y188763D01*
X48468Y188744D01*
X48416Y188724D01*
X48371Y188711D01*
X48345Y188705D01*
X48319Y188698D01*
X48312Y188692D01*
X48306D01*
X48222Y188659D01*
X48144Y188627D01*
X48008Y188562D01*
X47891Y188491D01*
X47801Y188433D01*
X47736Y188375D01*
X47691Y188336D01*
X47658Y188310D01*
X47652Y188297D01*
X47587Y188213D01*
X47542Y188122D01*
X47509Y188031D01*
X47490Y187947D01*
X47470Y187869D01*
X47464Y187811D01*
Y187772D01*
Y187766D01*
Y187759D01*
X47470Y187668D01*
X47483Y187578D01*
X47503Y187500D01*
X47535Y187416D01*
X47606Y187273D01*
X47684Y187144D01*
X47730Y187092D01*
X47768Y187040D01*
X47807Y187001D01*
X47840Y186963D01*
X47872Y186937D01*
X47891Y186917D01*
X47904Y186904D01*
X47911Y186898D01*
X47995Y186833D01*
X48092Y186775D01*
X48196Y186729D01*
X48299Y186684D01*
X48410Y186652D01*
X48520Y186619D01*
X48733Y186574D01*
X48831Y186561D01*
X48928Y186548D01*
X49012Y186542D01*
X49083Y186535D01*
X49142Y186529D01*
X49226D01*
X49375Y186535D01*
X49517Y186548D01*
X49653Y186567D01*
X49783Y186593D01*
X49899Y186626D01*
X50003Y186658D01*
X50107Y186697D01*
X50191Y186736D01*
X50275Y186775D01*
X50340Y186814D01*
X50405Y186846D01*
X50450Y186878D01*
X50489Y186904D01*
X50515Y186924D01*
X50534Y186937D01*
X50540Y186943D01*
X50625Y187027D01*
X50709Y187118D01*
X50780Y187215D01*
X50845Y187319D01*
X50903Y187429D01*
X50955Y187539D01*
X51046Y187753D01*
X51078Y187850D01*
X51104Y187941D01*
X51130Y188025D01*
X51149Y188102D01*
X51162Y188161D01*
X51175Y188206D01*
X51182Y188232D01*
Y188245D01*
X52944Y188077D01*
X52905Y187805D01*
X52846Y187546D01*
X52782Y187306D01*
X52697Y187079D01*
X52613Y186878D01*
X52523Y186691D01*
X52432Y186516D01*
X52335Y186367D01*
X52244Y186231D01*
X52160Y186114D01*
X52076Y186010D01*
X52004Y185933D01*
X51946Y185868D01*
X51901Y185823D01*
X51875Y185790D01*
X51862Y185784D01*
X51680Y185648D01*
X51486Y185525D01*
X51279Y185421D01*
X51065Y185330D01*
X50851Y185253D01*
X50631Y185194D01*
X50417Y185142D01*
X50210Y185097D01*
X50016Y185065D01*
X49834Y185039D01*
X49666Y185026D01*
X49524Y185013D01*
X49465Y185007D01*
X49407D01*
X49362Y185000D01*
X49245D01*
X49031Y185007D01*
X48824Y185013D01*
X48630Y185032D01*
X48448Y185052D01*
X48280Y185078D01*
X48118Y185104D01*
X47969Y185130D01*
X47833Y185162D01*
X47716Y185194D01*
X47606Y185220D01*
X47516Y185246D01*
X47445Y185272D01*
X47380Y185292D01*
X47334Y185311D01*
X47309Y185317D01*
X47302Y185324D01*
X47160Y185389D01*
X47024Y185460D01*
X46900Y185538D01*
X46784Y185622D01*
X46674Y185700D01*
X46577Y185784D01*
X46486Y185868D01*
X46402Y185946D01*
X46330Y186023D01*
X46266Y186095D01*
X46214Y186159D01*
X46168Y186211D01*
X46136Y186257D01*
X46110Y186295D01*
X46097Y186315D01*
X46091Y186321D01*
X46013Y186451D01*
X45948Y186574D01*
X45890Y186703D01*
X45838Y186833D01*
X45799Y186956D01*
X45760Y187073D01*
X45735Y187189D01*
X45709Y187299D01*
X45696Y187397D01*
X45683Y187487D01*
X45670Y187565D01*
X45663Y187636D01*
X45657Y187688D01*
Y187733D01*
Y187759D01*
Y187766D01*
X45663Y187921D01*
X45670Y188070D01*
X45689Y188213D01*
X45715Y188349D01*
X45741Y188472D01*
X45773Y188588D01*
X45806Y188698D01*
X45838Y188796D01*
X45871Y188886D01*
X45903Y188964D01*
X45935Y189029D01*
X45961Y189087D01*
X45987Y189132D01*
X46007Y189165D01*
X46013Y189184D01*
X46020Y189191D01*
X46091Y189294D01*
X46162Y189398D01*
X46324Y189579D01*
X46408Y189664D01*
X46492Y189735D01*
X46570Y189806D01*
X46648Y189864D01*
X46726Y189923D01*
X46790Y189968D01*
X46855Y190007D01*
X46907Y190046D01*
X46952Y190072D01*
X46985Y190091D01*
X47004Y190097D01*
X47010Y190104D01*
X47134Y190169D01*
X47276Y190227D01*
X47425Y190292D01*
X47580Y190350D01*
X47904Y190460D01*
X48066Y190506D01*
X48222Y190557D01*
X48371Y190596D01*
X48507Y190635D01*
X48636Y190667D01*
X48746Y190700D01*
X48837Y190719D01*
X48902Y190739D01*
X48928Y190745D01*
X48947D01*
X48954Y190752D01*
X48960D01*
X49193Y190810D01*
X49413Y190868D01*
X49601Y190920D01*
X49776Y190978D01*
X49932Y191030D01*
X50068Y191082D01*
X50184Y191127D01*
X50288Y191173D01*
X50372Y191211D01*
X50443Y191244D01*
X50502Y191276D01*
X50547Y191302D01*
X50586Y191328D01*
X50605Y191341D01*
X50618Y191354D01*
X50625D01*
X50715Y191445D01*
X50780Y191535D01*
X50826Y191626D01*
X50858Y191710D01*
X50877Y191788D01*
X50884Y191846D01*
X50890Y191885D01*
Y191891D01*
Y191898D01*
X50884Y191963D01*
X50877Y192021D01*
X50845Y192131D01*
X50800Y192222D01*
X50748Y192300D01*
X50696Y192364D01*
X50651Y192410D01*
X50618Y192442D01*
X50605Y192449D01*
X50515Y192507D01*
X50424Y192559D01*
X50327Y192604D01*
X50223Y192643D01*
X50016Y192701D01*
X49822Y192740D01*
X49724Y192753D01*
X49640Y192759D01*
X49563Y192766D01*
X49498Y192772D01*
X49446Y192779D01*
X49232D01*
X49096Y192766D01*
X48980Y192753D01*
X48869Y192733D01*
X48766Y192708D01*
X48669Y192682D01*
X48584Y192656D01*
X48507Y192630D01*
X48442Y192598D01*
X48384Y192572D01*
X48332Y192546D01*
X48293Y192520D01*
X48261Y192500D01*
X48241Y192487D01*
X48228Y192481D01*
X48222Y192474D01*
X48151Y192416D01*
X48092Y192345D01*
X47982Y192190D01*
X47898Y192028D01*
X47827Y191866D01*
X47801Y191788D01*
X47781Y191717D01*
X47762Y191652D01*
X47749Y191594D01*
X47736Y191548D01*
X47730Y191516D01*
X47723Y191490D01*
Y191483D01*
X45916Y191561D01*
X45935Y191788D01*
X45968Y192002D01*
X46013Y192202D01*
X46078Y192390D01*
X46143Y192565D01*
X46220Y192727D01*
X46298Y192876D01*
X46382Y193006D01*
X46466Y193129D01*
X46544Y193232D01*
X46615Y193323D01*
X46680Y193394D01*
X46739Y193452D01*
X46777Y193498D01*
X46803Y193524D01*
X46816Y193530D01*
X46985Y193660D01*
X47166Y193776D01*
X47367Y193874D01*
X47568Y193964D01*
X47781Y194035D01*
X47995Y194094D01*
X48202Y194146D01*
X48403Y194184D01*
X48597Y194210D01*
X48772Y194236D01*
X48934Y194256D01*
X49077Y194262D01*
X49142Y194269D01*
X49193D01*
X49239Y194275D01*
X49355D01*
X49543Y194269D01*
D02*
G37*
%LPC*%
G36*
X40631Y192034D02*
X39387Y188711D01*
X41842D01*
X40631Y192034D01*
D02*
G37*
G36*
X27418D02*
X26174Y188711D01*
X28629D01*
X27418Y192034D01*
D02*
G37*
%LPD*%
D11*
X9264Y155758D02*
X8264D01*
X8764D01*
Y154258D01*
X7764D02*
Y155758D01*
X7015D01*
X6765Y155508D01*
Y155008D01*
X7015Y154758D01*
X7764D01*
X6265Y154258D02*
X5765D01*
X6015D01*
Y155758D01*
X6265Y155508D01*
X9518Y180650D02*
X8518D01*
X9018D01*
Y179150D01*
X8019D02*
Y180650D01*
X7269D01*
X7019Y180400D01*
Y179900D01*
X7269Y179650D01*
X8019D01*
X6519Y180400D02*
X6269Y180650D01*
X5769D01*
X5519Y180400D01*
Y180150D01*
X5769Y179900D01*
X6019D01*
X5769D01*
X5519Y179650D01*
Y179400D01*
X5769Y179150D01*
X6269D01*
X6519Y179400D01*
X9518Y130865D02*
X8518D01*
X9018D01*
Y129366D01*
X8019D02*
Y130865D01*
X7269D01*
X7019Y130616D01*
Y130116D01*
X7269Y129866D01*
X8019D01*
X5519Y129366D02*
X6519D01*
X5519Y130366D01*
Y130616D01*
X5769Y130865D01*
X6269D01*
X6519Y130616D01*
X93218Y153670D02*
X91719D01*
Y152920D01*
X91968Y152670D01*
X92468D01*
X92718Y152920D01*
Y153670D01*
Y153170D02*
X93218Y152670D01*
X91968Y152170D02*
X91719Y151921D01*
Y151421D01*
X91968Y151171D01*
X92218D01*
X92468Y151421D01*
Y151671D01*
Y151421D01*
X92718Y151171D01*
X92968D01*
X93218Y151421D01*
Y151921D01*
X92968Y152170D01*
X33274Y133858D02*
X31774D01*
Y133108D01*
X32024Y132858D01*
X32524D01*
X32774Y133108D01*
Y133858D01*
Y133358D02*
X33274Y132858D01*
Y131359D02*
Y132359D01*
X32274Y131359D01*
X32024D01*
X31774Y131609D01*
Y132109D01*
X32024Y132359D01*
X33274Y153416D02*
X31774D01*
Y152666D01*
X32024Y152416D01*
X32524D01*
X32774Y152666D01*
Y153416D01*
Y152916D02*
X33274Y152416D01*
Y151917D02*
Y151417D01*
Y151667D01*
X31774D01*
X32024Y151917D01*
X91968Y132604D02*
X91719Y132854D01*
Y133354D01*
X91968Y133604D01*
X92968D01*
X93218Y133354D01*
Y132854D01*
X92968Y132604D01*
X93218Y132105D02*
Y131605D01*
Y131855D01*
X91719D01*
X91968Y132105D01*
X63500Y143231D02*
Y141982D01*
X63250Y141732D01*
X62750D01*
X62500Y141982D01*
Y143231D01*
X62000Y141732D02*
X61501D01*
X61751D01*
Y143231D01*
X62000Y142982D01*
D25*
X60500Y133000D02*
G03*
X60500Y133000I-1000J0D01*
G01*
M02*
