G04*
G04 #@! TF.GenerationSoftware,Altium Limited,Altium Designer,23.5.1 (21)*
G04*
G04 Layer_Physical_Order=1*
G04 Layer_Color=255*
%FSLAX44Y44*%
%MOMM*%
G71*
G04*
G04 #@! TF.SameCoordinates,7A1F3F2D-B41A-4998-AAA6-A89F92B82D0F*
G04*
G04*
G04 #@! TF.FilePolarity,Positive*
G04*
G01*
G75*
%ADD14C,0.1500*%
%ADD15C,1.8796*%
%ADD16O,1.0000X1.8000*%
%ADD17C,0.4000*%
G36*
X20000Y197706D02*
X95000D01*
X95008Y197708D01*
X98455Y197368D01*
X101777Y196360D01*
X104838Y194724D01*
X107522Y192522D01*
X109724Y189838D01*
X111360Y186777D01*
X112368Y183455D01*
X112708Y180008D01*
X112706Y180000D01*
Y115000D01*
X112706Y115000D01*
X112708Y114992D01*
X112368Y111545D01*
X111360Y108223D01*
X109724Y105162D01*
X107522Y102478D01*
X104838Y100276D01*
X101777Y98640D01*
X98455Y97632D01*
X95008Y97292D01*
X95000Y97294D01*
X20000Y97294D01*
X19992Y97292D01*
X16545Y97632D01*
X13223Y98640D01*
X10162Y100276D01*
X7478Y102478D01*
X5276Y105162D01*
X3640Y108223D01*
X2632Y111545D01*
X2292Y114992D01*
X2294Y115000D01*
Y180000D01*
X2292Y180008D01*
X2632Y183455D01*
X3640Y186777D01*
X5276Y189838D01*
X7478Y192522D01*
X10162Y194724D01*
X13223Y196360D01*
X16545Y197368D01*
X19992Y197708D01*
X20000Y197706D01*
D02*
G37*
%LPC*%
G36*
X81270Y180389D02*
Y171270D01*
X86556D01*
Y174000D01*
X86333Y175697D01*
X85678Y177278D01*
X84636Y178636D01*
X83278Y179678D01*
X81697Y180333D01*
X81270Y180389D01*
D02*
G37*
G36*
X78730D02*
X78303Y180333D01*
X76722Y179678D01*
X75364Y178636D01*
X74322Y177278D01*
X73667Y175697D01*
X73444Y174000D01*
Y171270D01*
X78730D01*
Y180389D01*
D02*
G37*
G36*
X86556Y168730D02*
X81270D01*
Y159611D01*
X81697Y159667D01*
X83278Y160322D01*
X84636Y161364D01*
X85678Y162722D01*
X86333Y164303D01*
X86556Y166000D01*
Y168730D01*
D02*
G37*
G36*
X78730D02*
X73444D01*
Y166000D01*
X73667Y164303D01*
X74322Y162722D01*
X75364Y161364D01*
X76722Y160322D01*
X78303Y159667D01*
X78730Y159611D01*
Y168730D01*
D02*
G37*
G36*
X55000Y180556D02*
X53303Y180333D01*
X51722Y179678D01*
X50364Y178636D01*
X49322Y177278D01*
X48667Y175697D01*
X48444Y174000D01*
Y166000D01*
X48667Y164303D01*
X49322Y162722D01*
X50364Y161364D01*
X51722Y160322D01*
X53303Y159667D01*
X55000Y159444D01*
X56697Y159667D01*
X58278Y160322D01*
X59636Y161364D01*
X60678Y162722D01*
X61333Y164303D01*
X61556Y166000D01*
Y174000D01*
X61333Y175697D01*
X60678Y177278D01*
X59636Y178636D01*
X58278Y179678D01*
X56697Y180333D01*
X55000Y180556D01*
D02*
G37*
G36*
X30000D02*
X28303Y180333D01*
X26722Y179678D01*
X25364Y178636D01*
X24322Y177278D01*
X23667Y175697D01*
X23444Y174000D01*
Y166000D01*
X23667Y164303D01*
X24322Y162722D01*
X25364Y161364D01*
X26722Y160322D01*
X28303Y159667D01*
X30000Y159444D01*
X31697Y159667D01*
X33278Y160322D01*
X34636Y161364D01*
X35678Y162722D01*
X36333Y164303D01*
X36556Y166000D01*
Y174000D01*
X36333Y175697D01*
X35678Y177278D01*
X34636Y178636D01*
X33278Y179678D01*
X31697Y180333D01*
X30000Y180556D01*
D02*
G37*
G36*
X41270Y145762D02*
Y143770D01*
X43262D01*
X42967Y144483D01*
X41983Y145467D01*
X41270Y145762D01*
D02*
G37*
G36*
X38730D02*
X38017Y145467D01*
X37033Y144483D01*
X36738Y143770D01*
X38730D01*
Y145762D01*
D02*
G37*
G36*
X43262Y141230D02*
X41270D01*
Y139238D01*
X41983Y139533D01*
X42967Y140517D01*
X43262Y141230D01*
D02*
G37*
G36*
X38730D02*
X36738D01*
X37033Y140517D01*
X38017Y139533D01*
X38730Y139238D01*
Y141230D01*
D02*
G37*
G36*
X103770Y135762D02*
Y133770D01*
X105762D01*
X105467Y134483D01*
X104483Y135467D01*
X103770Y135762D01*
D02*
G37*
G36*
X101230D02*
X100517Y135467D01*
X99533Y134483D01*
X99238Y133770D01*
X101230D01*
Y135762D01*
D02*
G37*
G36*
X105762Y131230D02*
X103770D01*
Y129238D01*
X104483Y129533D01*
X105467Y130517D01*
X105762Y131230D01*
D02*
G37*
G36*
X101230D02*
X99238D01*
X99533Y130517D01*
X100517Y129533D01*
X101230Y129238D01*
Y131230D01*
D02*
G37*
G36*
X15795Y148133D02*
X14402D01*
X13116Y147600D01*
X12131Y146616D01*
X11599Y145330D01*
Y143937D01*
X12131Y142651D01*
X13116Y141666D01*
X14402Y141133D01*
X15354D01*
X25476Y131011D01*
X25476Y131011D01*
X26221Y130514D01*
X27099Y130339D01*
X64711D01*
X65517Y129533D01*
X66804Y129000D01*
X68196D01*
X69483Y129533D01*
X70467Y130517D01*
X71000Y131804D01*
Y133196D01*
X70467Y134483D01*
X69483Y135467D01*
X68196Y136000D01*
X66804D01*
X65517Y135467D01*
X64978Y134927D01*
X28049D01*
X18599Y144378D01*
Y145330D01*
X18066Y146616D01*
X17081Y147600D01*
X15795Y148133D01*
D02*
G37*
G36*
X21435Y125898D02*
X21270D01*
Y116270D01*
X30898D01*
Y116435D01*
X30155Y119206D01*
X28721Y121692D01*
X26692Y123721D01*
X24207Y125155D01*
X21435Y125898D01*
D02*
G37*
G36*
X18730D02*
X18565D01*
X15793Y125155D01*
X13309Y123721D01*
X11279Y121692D01*
X9845Y119206D01*
X9102Y116435D01*
Y116270D01*
X18730D01*
Y125898D01*
D02*
G37*
G36*
X97635D02*
X94765D01*
X91994Y125155D01*
X89508Y123721D01*
X87479Y121692D01*
X86045Y119206D01*
X85302Y116435D01*
Y113565D01*
X86045Y110794D01*
X87479Y108308D01*
X89508Y106279D01*
X91994Y104845D01*
X94765Y104102D01*
X97635D01*
X100407Y104845D01*
X102892Y106279D01*
X104921Y108308D01*
X106355Y110794D01*
X107098Y113565D01*
Y116435D01*
X106355Y119206D01*
X104921Y121692D01*
X102892Y123721D01*
X100407Y125155D01*
X97635Y125898D01*
D02*
G37*
G36*
X72235D02*
X69365D01*
X66593Y125155D01*
X64109Y123721D01*
X62080Y121692D01*
X60645Y119206D01*
X59902Y116435D01*
Y113565D01*
X60645Y110794D01*
X62080Y108308D01*
X64109Y106279D01*
X66593Y104845D01*
X69365Y104102D01*
X72235D01*
X75006Y104845D01*
X77491Y106279D01*
X79521Y108308D01*
X80955Y110794D01*
X81698Y113565D01*
Y116435D01*
X80955Y119206D01*
X79521Y121692D01*
X77491Y123721D01*
X75006Y125155D01*
X72235Y125898D01*
D02*
G37*
G36*
X46835D02*
X43965D01*
X41193Y125155D01*
X38709Y123721D01*
X36679Y121692D01*
X35245Y119206D01*
X34502Y116435D01*
Y113565D01*
X35245Y110794D01*
X36679Y108308D01*
X38709Y106279D01*
X41193Y104845D01*
X43965Y104102D01*
X46835D01*
X49606Y104845D01*
X52091Y106279D01*
X54121Y108308D01*
X55555Y110794D01*
X56298Y113565D01*
Y116435D01*
X55555Y119206D01*
X54121Y121692D01*
X52091Y123721D01*
X49606Y125155D01*
X46835Y125898D01*
D02*
G37*
G36*
X30898Y113730D02*
X21270D01*
Y104102D01*
X21435D01*
X24207Y104845D01*
X26692Y106279D01*
X28721Y108308D01*
X30155Y110794D01*
X30898Y113565D01*
Y113730D01*
D02*
G37*
G36*
X18730D02*
X9102D01*
Y113565D01*
X9845Y110794D01*
X11279Y108308D01*
X13309Y106279D01*
X15793Y104845D01*
X18565Y104102D01*
X18730D01*
Y113730D01*
D02*
G37*
%LPD*%
D14*
X27099Y132633D02*
X67500D01*
X15099Y144633D02*
X27099Y132633D01*
D15*
X20000Y115000D02*
D03*
X45400D02*
D03*
X70800D02*
D03*
X96200D02*
D03*
D16*
X80000Y170000D02*
D03*
X55000D02*
D03*
X30000D02*
D03*
D17*
X40000Y142500D02*
D03*
X67500Y132500D02*
D03*
X102500D02*
D03*
X15099Y144633D02*
D03*
M02*
