G04*
G04 #@! TF.GenerationSoftware,Altium Limited,Altium Designer,25.1.2 (22)*
G04*
G04 Layer_Color=65535*
%FSLAX44Y44*%
%MOMM*%
G71*
G04*
G04 #@! TF.SameCoordinates,C2CD10C0-428F-42FD-AEA3-7CC1EC02DF51*
G04*
G04*
G04 #@! TF.FilePolarity,Positive*
G04*
G01*
G75*
%ADD10C,0.3000*%
%ADD11C,0.0200*%
G36*
X96616Y140333D02*
X96746Y140324D01*
X96903Y140314D01*
X97088Y140287D01*
X97291Y140259D01*
X97513Y140213D01*
X97744Y140157D01*
X97994Y140092D01*
X98243Y140009D01*
X98484Y139908D01*
X98733Y139787D01*
X98974Y139658D01*
X99196Y139501D01*
X99408Y139316D01*
X99417Y139307D01*
X99454Y139270D01*
X99510Y139214D01*
X99575Y139131D01*
X99658Y139029D01*
X99750Y138918D01*
X99852Y138770D01*
X99954Y138613D01*
X100055Y138438D01*
X100157Y138253D01*
X100250Y138040D01*
X100333Y137818D01*
X100398Y137578D01*
X100453Y137319D01*
X100490Y137051D01*
X100499Y136773D01*
Y136764D01*
Y136736D01*
Y136690D01*
Y136625D01*
X100490Y136551D01*
X100481Y136459D01*
X100471Y136357D01*
X100462Y136246D01*
X100425Y135997D01*
X100370Y135719D01*
X100287Y135423D01*
X100185Y135128D01*
Y135118D01*
X100166Y135091D01*
X100148Y135054D01*
X100129Y134989D01*
X100092Y134924D01*
X100046Y134841D01*
X100000Y134739D01*
X99944Y134638D01*
X99880Y134517D01*
X99806Y134388D01*
X99639Y134111D01*
X99436Y133815D01*
X99205Y133500D01*
X99196Y133491D01*
X99186Y133473D01*
X99159Y133445D01*
X99122Y133399D01*
X99066Y133334D01*
X99001Y133260D01*
X98927Y133177D01*
X98835Y133084D01*
X98733Y132973D01*
X98613Y132853D01*
X98484Y132715D01*
X98336Y132567D01*
X98179Y132409D01*
X98003Y132243D01*
X97809Y132058D01*
X97596Y131864D01*
X97587Y131855D01*
X97550Y131818D01*
X97485Y131762D01*
X97411Y131688D01*
X97319Y131605D01*
X97208Y131513D01*
X97097Y131402D01*
X96977Y131291D01*
X96727Y131050D01*
X96477Y130819D01*
X96366Y130708D01*
X96274Y130616D01*
X96181Y130523D01*
X96117Y130449D01*
X96108Y130431D01*
X96071Y130394D01*
X96006Y130320D01*
X95941Y130237D01*
X95858Y130135D01*
X95775Y130015D01*
X95691Y129895D01*
X95618Y129774D01*
X100499D01*
Y127500D01*
X91901D01*
Y127519D01*
X91910Y127555D01*
X91919Y127629D01*
X91938Y127722D01*
X91956Y127833D01*
X91984Y127971D01*
X92012Y128119D01*
X92058Y128286D01*
X92104Y128471D01*
X92169Y128665D01*
X92234Y128859D01*
X92308Y129072D01*
X92400Y129284D01*
X92502Y129506D01*
X92613Y129719D01*
X92733Y129941D01*
X92742Y129950D01*
X92770Y129996D01*
X92816Y130061D01*
X92872Y130154D01*
X92955Y130264D01*
X93066Y130403D01*
X93195Y130569D01*
X93343Y130754D01*
X93519Y130967D01*
X93713Y131198D01*
X93944Y131448D01*
X94194Y131725D01*
X94480Y132021D01*
X94785Y132326D01*
X95127Y132659D01*
X95497Y133010D01*
X95507Y133020D01*
X95516Y133029D01*
X95571Y133075D01*
X95654Y133158D01*
X95765Y133260D01*
X95895Y133389D01*
X96043Y133528D01*
X96200Y133685D01*
X96376Y133852D01*
X96718Y134203D01*
X96893Y134369D01*
X97051Y134545D01*
X97208Y134702D01*
X97337Y134850D01*
X97448Y134989D01*
X97531Y135100D01*
X97541Y135109D01*
X97550Y135137D01*
X97578Y135174D01*
X97615Y135229D01*
X97652Y135303D01*
X97689Y135377D01*
X97735Y135470D01*
X97790Y135571D01*
X97883Y135802D01*
X97957Y136052D01*
X98021Y136329D01*
X98031Y136468D01*
X98040Y136607D01*
Y136616D01*
Y136644D01*
Y136681D01*
X98031Y136746D01*
Y136810D01*
X98021Y136884D01*
X97984Y137069D01*
X97929Y137273D01*
X97855Y137485D01*
X97744Y137679D01*
X97670Y137781D01*
X97596Y137864D01*
X97587Y137873D01*
X97578Y137883D01*
X97550Y137901D01*
X97513Y137938D01*
X97467Y137966D01*
X97411Y138003D01*
X97346Y138049D01*
X97282Y138086D01*
X97106Y138169D01*
X96893Y138243D01*
X96653Y138290D01*
X96514Y138299D01*
X96376Y138308D01*
X96302D01*
X96246Y138299D01*
X96181D01*
X96108Y138280D01*
X95932Y138253D01*
X95738Y138197D01*
X95525Y138114D01*
X95433Y138058D01*
X95331Y138003D01*
X95239Y137929D01*
X95146Y137846D01*
X95137Y137837D01*
X95127Y137827D01*
X95100Y137800D01*
X95072Y137753D01*
X95035Y137707D01*
X94998Y137642D01*
X94961Y137568D01*
X94915Y137485D01*
X94869Y137383D01*
X94822Y137273D01*
X94776Y137143D01*
X94739Y137004D01*
X94702Y136847D01*
X94665Y136681D01*
X94647Y136505D01*
X94628Y136311D01*
X92187Y136551D01*
Y136561D01*
Y136579D01*
X92197Y136607D01*
Y136644D01*
X92206Y136690D01*
X92215Y136746D01*
X92243Y136884D01*
X92271Y137051D01*
X92317Y137236D01*
X92372Y137448D01*
X92437Y137670D01*
X92520Y137910D01*
X92613Y138151D01*
X92724Y138391D01*
X92853Y138632D01*
X92992Y138863D01*
X93158Y139075D01*
X93343Y139279D01*
X93546Y139454D01*
X93556Y139464D01*
X93602Y139492D01*
X93667Y139538D01*
X93750Y139593D01*
X93870Y139658D01*
X94000Y139732D01*
X94166Y139815D01*
X94342Y139898D01*
X94536Y139981D01*
X94758Y140065D01*
X94998Y140139D01*
X95248Y140203D01*
X95525Y140259D01*
X95812Y140305D01*
X96117Y140333D01*
X96431Y140342D01*
X96514D01*
X96616Y140333D01*
D02*
G37*
G36*
X73611Y127500D02*
X71161D01*
Y136736D01*
X71142Y136718D01*
X71096Y136681D01*
X71022Y136616D01*
X70920Y136533D01*
X70791Y136431D01*
X70634Y136311D01*
X70458Y136172D01*
X70255Y136034D01*
X70033Y135886D01*
X69792Y135729D01*
X69533Y135571D01*
X69256Y135423D01*
X68960Y135275D01*
X68646Y135128D01*
X68322Y134998D01*
X67989Y134878D01*
Y137106D01*
X67999D01*
X68036Y137125D01*
X68082Y137143D01*
X68156Y137171D01*
X68248Y137208D01*
X68350Y137245D01*
X68470Y137300D01*
X68609Y137365D01*
X68757Y137448D01*
X68914Y137531D01*
X69090Y137624D01*
X69265Y137735D01*
X69459Y137855D01*
X69654Y137985D01*
X69857Y138132D01*
X70070Y138290D01*
X70079Y138299D01*
X70116Y138327D01*
X70181Y138382D01*
X70255Y138447D01*
X70347Y138530D01*
X70449Y138632D01*
X70560Y138743D01*
X70689Y138872D01*
X70809Y139020D01*
X70939Y139177D01*
X71068Y139344D01*
X71198Y139529D01*
X71318Y139713D01*
X71429Y139917D01*
X71530Y140129D01*
X71614Y140342D01*
X73611D01*
Y127500D01*
D02*
G37*
D10*
X40400Y133921D02*
X50400D01*
X45400Y128921D02*
Y138921D01*
X15000Y133921D02*
X25000D01*
D11*
X69326Y100750D02*
X68826D01*
X69076D01*
Y99500D01*
X68826Y99250D01*
X68576D01*
X68326Y99500D01*
X70825Y99250D02*
X69826D01*
X70825Y100250D01*
Y100500D01*
X70575Y100750D01*
X70075D01*
X69826Y100500D01*
X95000Y170664D02*
X94500D01*
X94750D01*
Y169414D01*
X94500Y169164D01*
X94250D01*
X94000Y169414D01*
X95500Y169164D02*
X96000D01*
X95750D01*
Y170664D01*
X95500Y170414D01*
M02*
