G04*
G04 #@! TF.GenerationSoftware,Altium Limited,Altium Designer,24.4.1 (13)*
G04*
G04 Layer_Physical_Order=1*
G04 Layer_Color=255*
%FSLAX44Y44*%
%MOMM*%
G71*
G04*
G04 #@! TF.SameCoordinates,C7BBAB54-F3BF-42AB-8C7F-2431C5DD3FE9*
G04*
G04*
G04 #@! TF.FilePolarity,Positive*
G04*
G01*
G75*
%ADD14C,0.1500*%
%ADD15C,1.8796*%
%ADD16O,1.0000X1.8000*%
%ADD17C,0.4000*%
G36*
X95000Y198211D02*
X98553Y197861D01*
X101969Y196824D01*
X105117Y195142D01*
X107877Y192877D01*
X110142Y190117D01*
X111825Y186969D01*
X112861Y183553D01*
X113211Y180000D01*
X113216D01*
Y115000D01*
X113216Y115000D01*
X113211D01*
X112861Y111447D01*
X111825Y108031D01*
X110142Y104883D01*
X107877Y102123D01*
X105117Y99858D01*
X101969Y98175D01*
X98553Y97139D01*
X95000Y96789D01*
Y96784D01*
X20000Y96784D01*
Y96789D01*
X16447Y97139D01*
X13031Y98175D01*
X9883Y99858D01*
X7123Y102123D01*
X4858Y104883D01*
X3176Y108031D01*
X2139Y111447D01*
X1789Y115000D01*
X1784D01*
Y180000D01*
X1789D01*
X2139Y183553D01*
X3176Y186969D01*
X4858Y190117D01*
X7123Y192877D01*
X9883Y195142D01*
X13031Y196824D01*
X16447Y197861D01*
X20000Y198211D01*
Y198216D01*
X20000Y198216D01*
X95000D01*
Y198211D01*
D02*
G37*
%LPC*%
G36*
X81270Y179865D02*
Y171270D01*
X86117D01*
Y174000D01*
X85652Y176341D01*
X84326Y178326D01*
X82341Y179652D01*
X81270Y179865D01*
D02*
G37*
G36*
X78730D02*
X77659Y179652D01*
X75674Y178326D01*
X74348Y176341D01*
X73882Y174000D01*
Y171270D01*
X78730D01*
Y179865D01*
D02*
G37*
G36*
X86117Y168730D02*
X81270D01*
Y160135D01*
X82341Y160348D01*
X84326Y161674D01*
X85652Y163659D01*
X86117Y166000D01*
Y168730D01*
D02*
G37*
G36*
X78730D02*
X73882D01*
Y166000D01*
X74348Y163659D01*
X75674Y161674D01*
X77659Y160348D01*
X78730Y160135D01*
Y168730D01*
D02*
G37*
G36*
X55000Y180117D02*
X52659Y179652D01*
X50674Y178326D01*
X49348Y176341D01*
X48882Y174000D01*
Y166000D01*
X49348Y163659D01*
X50674Y161674D01*
X52659Y160348D01*
X55000Y159882D01*
X57341Y160348D01*
X59326Y161674D01*
X60652Y163659D01*
X61118Y166000D01*
Y174000D01*
X60652Y176341D01*
X59326Y178326D01*
X57341Y179652D01*
X55000Y180117D01*
D02*
G37*
G36*
X30000D02*
X27659Y179652D01*
X25674Y178326D01*
X24348Y176341D01*
X23883Y174000D01*
Y166000D01*
X24348Y163659D01*
X25674Y161674D01*
X27659Y160348D01*
X30000Y159882D01*
X32341Y160348D01*
X34326Y161674D01*
X35652Y163659D01*
X36117Y166000D01*
Y174000D01*
X35652Y176341D01*
X34326Y178326D01*
X32341Y179652D01*
X30000Y180117D01*
D02*
G37*
G36*
X15695Y147633D02*
X14502D01*
X13399Y147177D01*
X12555Y146333D01*
X12098Y145230D01*
Y144037D01*
X12555Y142934D01*
X13399Y142090D01*
X14502Y141633D01*
X15575D01*
X25837Y131372D01*
X26416Y130985D01*
X27099Y130849D01*
X64937D01*
X64957Y130801D01*
X65801Y129957D01*
X66903Y129500D01*
X68097D01*
X69199Y129957D01*
X70043Y130801D01*
X70500Y131903D01*
Y133097D01*
X70043Y134199D01*
X69199Y135043D01*
X68097Y135500D01*
X66903D01*
X65801Y135043D01*
X65175Y134418D01*
X27838D01*
X18098Y144157D01*
Y145230D01*
X17642Y146333D01*
X16798Y147177D01*
X15695Y147633D01*
D02*
G37*
G36*
X21369Y125398D02*
X21270D01*
Y116270D01*
X30398D01*
Y116369D01*
X29689Y119014D01*
X28321Y121384D01*
X26384Y123321D01*
X24014Y124689D01*
X21369Y125398D01*
D02*
G37*
G36*
X18730D02*
X18631D01*
X15986Y124689D01*
X13615Y123321D01*
X11680Y121384D01*
X10311Y119014D01*
X9602Y116369D01*
Y116270D01*
X18730D01*
Y125398D01*
D02*
G37*
G36*
X97569D02*
X94831D01*
X92186Y124689D01*
X89816Y123321D01*
X87880Y121384D01*
X86511Y119014D01*
X85802Y116369D01*
Y113631D01*
X86511Y110986D01*
X87880Y108616D01*
X89816Y106679D01*
X92186Y105311D01*
X94831Y104602D01*
X97569D01*
X100213Y105311D01*
X102584Y106679D01*
X104521Y108616D01*
X105889Y110986D01*
X106598Y113631D01*
Y116369D01*
X105889Y119014D01*
X104521Y121384D01*
X102584Y123321D01*
X100213Y124689D01*
X97569Y125398D01*
D02*
G37*
G36*
X72169D02*
X69431D01*
X66786Y124689D01*
X64415Y123321D01*
X62480Y121384D01*
X61111Y119014D01*
X60402Y116369D01*
Y113631D01*
X61111Y110986D01*
X62480Y108616D01*
X64415Y106679D01*
X66786Y105311D01*
X69431Y104602D01*
X72169D01*
X74813Y105311D01*
X77185Y106679D01*
X79120Y108616D01*
X80489Y110986D01*
X81198Y113631D01*
Y116369D01*
X80489Y119014D01*
X79120Y121384D01*
X77185Y123321D01*
X74813Y124689D01*
X72169Y125398D01*
D02*
G37*
G36*
X46769D02*
X44031D01*
X41386Y124689D01*
X39016Y123321D01*
X37080Y121384D01*
X35711Y119014D01*
X35002Y116369D01*
Y113631D01*
X35711Y110986D01*
X37080Y108616D01*
X39016Y106679D01*
X41386Y105311D01*
X44031Y104602D01*
X46769D01*
X49413Y105311D01*
X51785Y106679D01*
X53720Y108616D01*
X55089Y110986D01*
X55798Y113631D01*
Y116369D01*
X55089Y119014D01*
X53720Y121384D01*
X51785Y123321D01*
X49413Y124689D01*
X46769Y125398D01*
D02*
G37*
G36*
X30398Y113730D02*
X21270D01*
Y104602D01*
X21369D01*
X24014Y105311D01*
X26384Y106679D01*
X28321Y108616D01*
X29689Y110986D01*
X30398Y113631D01*
Y113730D01*
D02*
G37*
G36*
X18730D02*
X9602D01*
Y113631D01*
X10311Y110986D01*
X11680Y108616D01*
X13615Y106679D01*
X15986Y105311D01*
X18631Y104602D01*
X18730D01*
Y113730D01*
D02*
G37*
%LPD*%
D14*
X27099Y132633D02*
X67500D01*
X15099Y144633D02*
X27099Y132633D01*
D15*
X20000Y115000D02*
D03*
X45400D02*
D03*
X70800D02*
D03*
X96200D02*
D03*
D16*
X80000Y170000D02*
D03*
X55000D02*
D03*
X30000D02*
D03*
D17*
X40000Y142500D02*
D03*
X67500Y132500D02*
D03*
X102500D02*
D03*
X15099Y144633D02*
D03*
M02*
